<?xml version="1.0"?>
<svg xmlns:rdf="http://www.w3.org/1999/02/22-rdf-syntax-ns#" xmlns="http://www.w3.org/2000/svg" xmlns:cc="http://creativecommons.org/ns#" xmlns:dc="http://purl.org/dc/elements/1.1/" xmlns:svg="http://www.w3.org/2000/svg" id="svg2" viewBox="0 0 661.39 540.92" version="1.0">
  <g id="layer1" transform="translate(-48.846 -269.2)">
    <g id="g8280" stroke="#000" stroke-width=".7" transform="translate(-3.9121)">
      <path id="rect3969" d="m86.625 303.98l590.14-0.55-1.08 387.57h-589.06l0.005-387.02z" fill="#231b25" fill-opacity=".83938"/>
      <path id="rect4844" d="m711.4 269.55l1.33 387.49 0.79 65.24c-0.09 0-38.49-31.7-38.49-31.75l0.52-386.71 35.85-34.27z" fill="#dcdcdc"/>
      <path id="rect4846" d="m710.76 269.85l-33.48 34.2-588.42-0.69c-20.921-6.15-23.41-21.68-35.118-32.52l657.02-0.99z" fill="#dcdcdc"/>
      <rect id="rect8370" height="50.876" width="141.36" y="714.65" x="317.19" fill="#060000"/>
      <path id="path7481" d="m676.06 690.18l37.74 31.83-0.06 0.11-659.57-0.69 32.543-30.46 589.35-0.79z" fill="#dcdcdc"/>
      <path id="path7483" d="m87.256 302.78l-0.506 387.38-30.729 31.43c-0.09 0-2.913-0.05-2.913-0.1l0.526-450.03 33.622 31.32z" fill="#dcdcdc"/>
      <rect id="rect9245" height="50.876" width="288.54" y="758.89" x="245.77" fill="#060000"/>
    </g>
  </g>
  <metadata>
    <rdf:RDF>
      <cc:Work>
        <dc:format>image/svg+xml</dc:format>
        <dc:type rdf:resource="http://purl.org/dc/dcmitype/StillImage"/>
        <cc:license rdf:resource="http://creativecommons.org/licenses/publicdomain/"/>
        <dc:publisher>
          <cc:Agent rdf:about="http://openclipart.org/">
            <dc:title>Openclipart</dc:title>
          </cc:Agent>
        </dc:publisher>
        <dc:title>TV set</dc:title>
        <dc:date>2006-12-29T10:47:38</dc:date>
        <dc:description>Simple rectangular TV set in black and gray.</dc:description>
        <dc:source>http://openclipart.org/detail/2416/tv-set-by-machovka</dc:source>
        <dc:creator>
          <cc:Agent>
            <dc:title>Machovka</dc:title>
          </cc:Agent>
        </dc:creator>
        <dc:subject>
          <rdf:Bag>
            <rdf:li>clip art</rdf:li>
            <rdf:li>clipart</rdf:li>
            <rdf:li>electrical appliances</rdf:li>
            <rdf:li>house</rdf:li>
            <rdf:li>image</rdf:li>
            <rdf:li>media</rdf:li>
            <rdf:li>png</rdf:li>
            <rdf:li>public domain</rdf:li>
            <rdf:li>screen</rdf:li>
            <rdf:li>svg</rdf:li>
            <rdf:li>television</rdf:li>
            <rdf:li>tv set</rdf:li>
          </rdf:Bag>
        </dc:subject>
      </cc:Work>
      <cc:License rdf:about="http://creativecommons.org/licenses/publicdomain/">
        <cc:permits rdf:resource="http://creativecommons.org/ns#Reproduction"/>
        <cc:permits rdf:resource="http://creativecommons.org/ns#Distribution"/>
        <cc:permits rdf:resource="http://creativecommons.org/ns#DerivativeWorks"/>
      </cc:License>
    </rdf:RDF>
  </metadata>
</svg>
