<?xml version="1.0" encoding="UTF-8"?>
<svg xmlns="http://www.w3.org/2000/svg" xmlns:xlink="http://www.w3.org/1999/xlink" width="540.99pt" height="192.58pt" viewBox="0 0 540.99 192.58" version="1.1">
<defs>
<clipPath id="clip1">
  <path d="M 0 0 L 540.988281 0 L 540.988281 192.578125 L 0 192.578125 Z M 0 0 "/>
</clipPath>
</defs>
<g id="surface1">
<g clip-path="url(#clip1)" clip-rule="nonzero">
<path style=" stroke:none;fill-rule:nonzero;fill:rgb(81.199646%,12.199402%,24.299622%);fill-opacity:1;" d="M 102.296875 0.00390625 C 46.84375 0.00390625 0 44.101563 0 96.296875 C 0 148.488281 46.84375 192.578125 102.296875 192.578125 L 438.6875 192.578125 C 494.144531 192.578125 540.992188 148.488281 540.992188 96.300781 C 540.992188 44.101563 494.144531 0.00390625 438.6875 0.00390625 Z M 23.367188 96.296875 C 23.367188 55.410156 59.324219 22.144531 103.527344 22.144531 L 437.460938 22.144531 C 481.65625 22.144531 517.617188 55.410156 517.617188 96.300781 C 517.617188 137.183594 481.65625 170.441406 437.460938 170.441406 L 103.527344 170.441406 C 59.324219 170.441406 23.367188 137.183594 23.367188 96.296875 "/>
</g>
<path style=" stroke:none;fill-rule:nonzero;fill:rgb(81.199646%,12.199402%,24.299622%);fill-opacity:1;" d="M 94.8125 145.863281 L 132.1875 145.824219 C 145.332031 145.695313 157.667969 140.488281 166.921875 131.152344 C 176.191406 121.816406 181.292969 109.429688 181.292969 96.265625 C 181.292969 83.113281 176.191406 70.722656 166.921875 61.378906 C 157.65625 52.042969 145.316406 46.84375 132.175781 46.734375 C 132.171875 46.734375 94.8125 46.71875 94.8125 46.71875 Z M 130.582031 66.316406 C 146.851563 66.566406 160.09375 80.003906 160.09375 96.265625 C 160.09375 112.539063 146.851563 125.96875 130.574219 126.207031 C 130.574219 126.207031 117.375 126.214844 115.761719 126.214844 L 115.761719 66.316406 Z M 436.691406 46.863281 L 436.429688 47.328125 C 436.230469 47.671875 418.257813 79.558594 413.367188 88.402344 C 411.867188 85.746094 389.914063 46.863281 389.914063 46.863281 L 365.953125 46.863281 L 366.726563 48.226563 C 368.136719 50.6875 400.109375 106.703125 402.335938 110.601563 L 402.335938 145.863281 L 424.234375 145.863281 L 424.234375 110.597656 C 426.15625 107.234375 460.578125 46.863281 460.578125 46.863281 Z M 285.820313 46.863281 L 285.820313 145.863281 L 307.015625 145.863281 L 307.015625 106.203125 L 356.65625 106.203125 L 356.65625 86.734375 L 307.015625 86.734375 L 307.015625 66.339844 L 358.761719 66.339844 L 358.761719 46.863281 Z M 194.289063 46.863281 L 194.289063 145.863281 L 269.386719 145.863281 L 269.386719 126.386719 L 215.476563 126.386719 L 215.476563 106.183594 L 267 106.183594 L 267 86.867188 L 215.476563 86.867188 L 215.476563 66.339844 L 269.386719 66.339844 L 269.386719 46.863281 L 194.289063 46.863281 "/>
</g>
</svg>
