<svg id="Layer_1" data-name="Layer 1" xmlns="http://www.w3.org/2000/svg" viewBox="0 0 529.78 99.86"><defs><style>.cls-1{fill:#165da8;}.cls-2{fill:#ea2429;}</style></defs><path class="cls-1" d="M124.34,37.89H81.44V61H121a12.7,12.7,0,0,1,6.57,1.65c1.67,1.66,2.51,3.29,2.51,5s-.84,4.11-2.51,4.95c-1.65,1.66-3.27,1.66-6.57,1.66H81.44v27.21H126c3.32,0,5,.84,6.62,2.49a7.46,7.46,0,0,1,2.48,5.75,7.55,7.55,0,0,1-2.48,5.81A9.48,9.48,0,0,1,126,118H74c-4.13,0-7.43-.84-9.09-2.46s-2.49-5-2.49-9.12V35.45c0-2.51.83-5,.83-6.62a10.4,10.4,0,0,1,4.14-4.15c1.62-.77,4.11-.77,6.61-.77h50.33a12.51,12.51,0,0,1,6.59,1.63,7.09,7.09,0,0,1,2.46,4.94,8.84,8.84,0,0,1-2.46,5.78A15.55,15.55,0,0,1,124.34,37.89Z" transform="translate(-62.43 -20.57)"/><path class="cls-1" d="M207.67,97.33c0,2.46-.85,4.11-1.63,6.6a48.43,48.43,0,0,1-5.82,7.45,58.65,58.65,0,0,1-9.87,5.73,37.81,37.81,0,0,1-14,2.49c-10.72,0-19-3.3-25.58-9.92-5.78-6.59-9.07-14.81-9.07-25.55a45.6,45.6,0,0,1,4.15-19c2.46-5.78,6.57-9.93,12.37-13.23,4.95-3.25,11.54-4.95,19-4.95a62.6,62.6,0,0,1,12.37,1.7,52,52,0,0,1,9.91,4.94c2.46,2.46,4.94,4.13,5.78,6.59a13.5,13.5,0,0,1,2.46,6.6,9.17,9.17,0,0,1-2.46,5.78A7.48,7.48,0,0,1,199.43,75c-1.65,0-2.48,0-3.32-.8-1.6-.83-2.46-2.5-3.27-3.33-2.49-3.28-4.16-5.76-6.62-7.43a16.87,16.87,0,0,0-21.49,3.32c-3.27,4.11-4.92,9.91-4.92,16.5,0,3.3.81,6.6.81,9.06a29.08,29.08,0,0,0,3.32,7.44c1.65,1.65,3.3,3.3,5.78,4.14a23.89,23.89,0,0,0,7.43,1.64,16.53,16.53,0,0,0,9.07-2.48,19.82,19.82,0,0,0,6.62-7.43c.81-1.64,2.46-3.31,3.27-4.94a11.83,11.83,0,0,1,5-1.65c2.48,0,4.13.82,5,2.48C206.82,94,207.67,95.66,207.67,97.33Z" transform="translate(-62.43 -20.57)"/><path class="cls-1" d="M284.41,83.29A48,48,0,0,1,282,98.17a34.77,34.77,0,0,1-7.45,11.51,30.88,30.88,0,0,1-10.68,7.43,39.46,39.46,0,0,1-14.92,2.49,37.71,37.71,0,0,1-14-2.49,31.75,31.75,0,0,1-18.15-18.94,45.65,45.65,0,0,1,0-29.74,34.56,34.56,0,0,1,7.42-11.53,31.72,31.72,0,0,1,10.73-7.45,42.52,42.52,0,0,1,14-2.49,47.73,47.73,0,0,1,14.92,2.49,32,32,0,0,1,18.13,19A48,48,0,0,1,284.41,83.29Zm-17.32,0c0-7.42-1.66-12.39-4.94-16.5A14.88,14.88,0,0,0,249.75,61a16.69,16.69,0,0,0-9.05,2.46,12.72,12.72,0,0,0-5.8,8.26,27.89,27.89,0,0,0-2.46,12.4,30.39,30.39,0,0,0,2.46,12.35,29.68,29.68,0,0,0,5.8,8.28,16.87,16.87,0,0,0,9.05,2.47c5,0,9.92-1.66,12.4-5.79A33.43,33.43,0,0,0,267.09,83.29Z" transform="translate(-62.43 -20.57)"/><path class="cls-2" d="M376,87.42a22.15,22.15,0,0,1-2.46,9.91,70.19,70.19,0,0,1-6.61,9.9c-3.3,3.29-7.41,5.75-12.38,8.26s-10.73,3.31-17.32,3.31a63,63,0,0,1-13.2-1.69A40.36,40.36,0,0,1,313.29,113c-3.29-2.46-6.59-4.92-9.1-8.22a71.08,71.08,0,0,1-6.59-9.89c-1.63-4.15-3.28-7.45-4.11-11.58a71.67,71.67,0,0,1-1.65-13.16c0-7.47.82-14.07,3.32-20.68,1.65-5.78,4.92-10.73,9.89-15.67a46.21,46.21,0,0,1,14.83-9.87c5.8-2.52,11.58-3.34,18.18-3.34,7.4,0,14.83,1.65,20.61,5s10.73,6.61,14,11.54c3.32,4.13,5,9.09,5,12.37a7.45,7.45,0,0,1-2.47,5.76,7.38,7.38,0,0,1-5.79,2.52,11.66,11.66,0,0,1-5.76-1.67,52.68,52.68,0,0,1-4.11-5.76,30.24,30.24,0,0,0-9.1-10.72c-3.32-2.5-7.43-3.32-12.37-3.32-8.25,0-14,3.32-19,9.08s-6.62,14.85-6.62,25.56c0,7.45.84,13.23,3.32,18.17a19.56,19.56,0,0,0,9.06,10.72c4.15,2.49,8.26,3.3,13.23,3.3a25.44,25.44,0,0,0,14-4.13c4.15-2.48,6.61-6.61,8.26-12.37a12.75,12.75,0,0,1,3.32-5.74c.81-1.69,3.3-2.5,5.76-2.5a7.36,7.36,0,0,1,5.79,2.5c0,2.44.82,4.92.82,6.57Z" transform="translate(-62.43 -20.57)"/><path class="cls-2" d="M432.93,108.89a50,50,0,0,1-12.37,7.41,34.23,34.23,0,0,1-13.23,2.5,26.49,26.49,0,0,1-11.54-2.5c-3.32-1.67-5.76-4.13-8.24-7.41A22.06,22.06,0,0,1,385.09,99,16.9,16.9,0,0,1,390,86.59,22.87,22.87,0,0,1,402.4,80c.82,0,4.13-.84,8.28-1.65s8.23-1.65,11.55-2.48l9.89-2.47c0-5-.84-8.26-2.49-9.93-1.65-2.46-4.94-3.28-9.91-3.28a30.62,30.62,0,0,0-9.89,1.65c-2.5.82-4.11,3.3-5.77,5.78-.84,1.65-2.47,3.28-3.3,4.95-.84.83-2.47.83-4.12.83a8.65,8.65,0,0,1-5-1.67c-1.65-.83-2.48-3.3-2.48-4.94,0-3.32.83-5.78,3.27-9.06s5.82-5,9.93-7.43a55.14,55.14,0,0,1,17.32-2.48c7.45,0,14.06.84,18.17,2.48A16.17,16.17,0,0,1,447,59.36c1.67,4.11,2.51,9.07,2.51,15.67V95.66c0,3.3.79,6.62,1.62,10.71.82,3.31,1.65,5.8,1.65,6.61a7.18,7.18,0,0,1-2.48,5,7.47,7.47,0,0,1-5.78,2.48,7.14,7.14,0,0,1-4.95-2.48,32.32,32.32,0,0,1-6.61-9.06Zm-1.65-25.6c-2.46.84-6.59,1.67-11.56,3.3-4.92.83-8.24,1.67-9.89,2.48s-4.11,1.65-5.77,3.28a8.17,8.17,0,0,0,.83,12.41c1.64,1.61,4.94,2.47,8.26,2.47a22.58,22.58,0,0,0,9.89-2.47,15.28,15.28,0,0,0,6.59-5.8c1.65-2.48,2.49-7.41,2.49-13.19l-.84-2.48Z" transform="translate(-62.43 -20.57)"/><path class="cls-2" d="M518.77,95.66c0,5-.86,9.1-3.32,12.4s-5.76,5.78-10.7,8.24a49.89,49.89,0,0,1-16.53,2.5c-6.59,0-11.58-.85-16.5-3.31-4.11-1.65-8.24-4.11-9.89-7.43-2.49-3.3-3.32-5.78-3.32-9.1A7.07,7.07,0,0,1,461,94a7,7,0,0,1,4.92-2.47,6.13,6.13,0,0,1,4.11,1.65,16.56,16.56,0,0,1,2.5,4.13,19.2,19.2,0,0,0,6.6,7.43,17.91,17.91,0,0,0,9.91,2.47c3.29,0,6.61-.86,8.22-2.47,2.48-1.67,3.33-3.32,3.33-5.8,0-3.3-.85-4.94-3.33-6.61s-6.58-2.46-11.54-4.09c-5.76-1.67-10.7-3.3-14.83-5-3.3-1.63-6.6-3.29-9.08-6.59-2.49-2.47-3.32-5.8-3.32-9.91a15.71,15.71,0,0,1,3.32-9.89c2.48-3.3,4.94-5.78,9.08-7.45A40.33,40.33,0,0,1,485.74,47c5,0,8.26.86,12.39,1.7a29.49,29.49,0,0,1,9.08,4.11,34.57,34.57,0,0,1,5.76,5c1.67,1.63,1.67,4.11,1.67,5.74a11.6,11.6,0,0,1-1.67,5c-1.65,1.7-3.28,1.7-5.76,1.7a11.36,11.36,0,0,1-4.94-1.7,21,21,0,0,1-4.14-5c-1.65-1.63-2.46-3.28-5-4.11a16.26,16.26,0,0,0-7.43-1.63,24.37,24.37,0,0,0-8.24,1.63c-2.46,1.65-3.32,3.3-3.32,5a7.35,7.35,0,0,0,2.46,5c1.67.86,3.34,2.46,6.64,3.3S489.89,74.23,494,75a78,78,0,0,1,13.21,5c3.3,1.66,5.76,4.13,8.24,6.59a15.53,15.53,0,0,1,3.32,9.07Z" transform="translate(-62.43 -20.57)"/><path class="cls-2" d="M546.79,32.15V58.53c2.5-2.47,4.15-4.93,6.61-5.76a21.08,21.08,0,0,1,7.45-3.32c2.46-.79,5.76-.79,8.24-.79a26,26,0,0,1,11.54,2.46c3.32,1.65,5.78,4.94,8.24,8.24,1.67,2.48,2.51,4.11,2.51,7.43.83,2.48.83,5.78.83,9.08v32.19a13.71,13.71,0,0,1-2.5,8.24,9.37,9.37,0,0,1-6.57,2.5c-5.8,0-9.1-3.31-9.1-10.74V78.35c0-5.78-.82-9.92-2.47-13.21s-5-5-9.92-5a14,14,0,0,0-8.25,2.47c-2.46,1.66-4.11,4.13-5.77,7.47-.84,2.44-1.63,7.4-1.63,14v23.93a13.71,13.71,0,0,1-2.49,8.24,9.34,9.34,0,0,1-6.59,2.5c-5.78,0-9.1-3.31-9.1-10.74V31.32c0-3.3.84-6.64,2.51-8.24s3.32-2.51,6.59-2.51a9.17,9.17,0,0,1,6.59,2.51c2.49,2.46,3.28,5.75,3.28,9.07Z" transform="translate(-62.43 -20.57)"/></svg>