<?xml version="1.0" encoding="UTF-8"?>
<svg id="Layer_1" data-name="Layer 1" xmlns="http://www.w3.org/2000/svg" viewBox="0 0 398.13 100.1">
  <defs>
    <style>
      .cls-1 {
        letter-spacing: 0em;
      }

      .cls-2 {
        fill: #1d76bb;
      }

      .cls-3 {
        fill: #fff;
        font-family: Montserrat-ExtraBold, Montserrat;
        font-size: 25.14px;
        font-weight: 700;
      }

      .cls-4 {
        fill: #414042;
      }
    </style>
  </defs>
  <rect class="cls-4" x="338.35" y="15.64" width="59.79" height="79.16"/>
  <text class="cls-3" transform="translate(375.67 83.55) rotate(-90)"><tspan class="cls-1" x="0" y="0">c</tspan><tspan x="15.01" y="0">om</tspan></text>
  <path class="cls-2" d="m22.11,33.78v24.9c0,2.14.55,3.81,1.65,5.01,1.1,1.21,2.41,1.81,3.93,1.81,2.89,0,5.34-1.31,7.33-3.93l5.78,10.85c-4.82,4.41-9.9,6.61-15.24,6.61s-9.85-1.76-13.53-5.27c-3.68-3.51-5.53-8.3-5.53-14.36v-25.62H0v-11.16h6.51V5.99h15.6v16.63h13.43v11.16h-13.43Z"/>
  <path class="cls-2" d="m73.55,36.26c-4.61,0-8.06,1.64-10.33,4.91-2.27,3.27-3.41,7.59-3.41,12.96v24.07h-15.49V22.62h15.49v7.33c2-2.27,4.49-4.2,7.49-5.78,3-1.58,6.04-2.41,9.14-2.48l.1,14.57h-3Z"/>
  <path class="cls-2" d="m136.77,50.41c0,8.06-2.79,14.84-8.37,20.35-5.58,5.51-12.59,8.26-21.02,8.26s-15.44-2.75-21.02-8.26c-5.58-5.51-8.37-12.29-8.37-20.35s2.79-14.86,8.37-20.4c5.58-5.54,12.58-8.32,21.02-8.32s15.44,2.77,21.02,8.32c5.58,5.54,8.37,12.34,8.37,20.4Zm-43.18,0c0,4.55,1.29,8.25,3.87,11.1,2.58,2.86,5.89,4.29,9.92,4.29s7.33-1.43,9.92-4.29c2.58-2.86,3.87-6.56,3.87-11.1s-1.29-8.26-3.87-11.16-5.89-4.34-9.92-4.34-7.33,1.45-9.92,4.34-3.87,6.61-3.87,11.16Z"/>
  <path class="cls-2" d="m158.98,78.2h-15.49V1.55h15.49v76.65Z"/>
  <path class="cls-2" d="m184.39,78.2h-15.49V1.55h15.49v76.65Z"/>
  <path class="cls-2" d="m195.59,15.55c-1.76-1.76-2.63-3.91-2.63-6.46s.88-4.7,2.63-6.46c1.76-1.76,3.91-2.63,6.46-2.63s4.7.88,6.46,2.63c1.76,1.76,2.63,3.91,2.63,6.46s-.88,4.7-2.63,6.46c-1.76,1.76-3.91,2.63-6.46,2.63s-4.7-.88-6.46-2.63Z"/>
  <rect class="cls-2" x="194.3" y="22.62" width="15.49" height="55.58"/>
  <path class="cls-2" d="m267.85,70.14c-6.27,5.92-13.62,8.88-22.05,8.88s-15.41-2.6-20.92-7.8c-5.51-5.2-8.26-12.17-8.26-20.92s2.8-15.7,8.42-20.87c5.61-5.17,12.24-7.75,19.88-7.75s14.13,2.31,19.47,6.92c5.34,4.61,8,10.95,8,19.01v8.26h-40.49c.48,3.03,2.07,5.51,4.75,7.44,2.69,1.93,5.71,2.89,9.09,2.89,5.44,0,9.92-1.82,13.43-5.47l8.68,9.4Zm-14.87-32.95c-2.14-1.79-4.74-2.69-7.8-2.69s-5.87.93-8.42,2.79-4.03,4.37-4.44,7.54h24.38c-.35-3.31-1.58-5.85-3.72-7.64Z"/>
  <path class="cls-2" d="m287.58,100.1c-5.44,0-10.57-2.2-15.39-6.61l7.02-11.47c2.62,2.55,5.3,3.82,8.06,3.82,1.45,0,2.69-.71,3.72-2.12,1.03-1.41,1.55-2.91,1.55-4.49s-7.16-20.45-21.49-56.61h16.53l13.53,34.61,13.53-34.61h16.53l-25.82,65.49c-1.52,3.79-3.87,6.73-7.08,8.83-3.2,2.1-6.77,3.15-10.69,3.15Z"/>
</svg>