<?xml version="1.0" encoding="UTF-8" standalone="no"?>
<!-- Created with Inkscape (http://www.inkscape.org/) -->
<svg xmlns:dc="http://purl.org/dc/elements/1.1/" xmlns:cc="http://creativecommons.org/ns#" xmlns:rdf="http://www.w3.org/1999/02/22-rdf-syntax-ns#" xmlns:svg="http://www.w3.org/2000/svg" xmlns="http://www.w3.org/2000/svg" xmlns:xlink="http://www.w3.org/1999/xlink" xmlns:sodipodi="http://sodipodi.sourceforge.net/DTD/sodipodi-0.dtd" xmlns:inkscape="http://www.inkscape.org/namespaces/inkscape" width="744.09448" height="1052.3622" id="svg2" inkscape:label="Pozad  " sodipodi:version="0.32" inkscape:version="0.47 r22583" sodipodi:docname="mixer.svg" inkscape:output_extension="org.inkscape.output.svg.inkscape" version="1.1" style="display:inline" inkscape:export-filename="C:\Documents and Settings\Honza\Plocha\SVG\mixer\mixer.png" inkscape:export-xdpi="30.958923" inkscape:export-ydpi="30.958923">
  <title id="title4010">Kitchen mixer</title>
  <defs id="defs5516">
    <linearGradient id="linearGradient3695">
      <stop id="stop3697" offset="0" style="stop-color:#ffffff;stop-opacity:1;"/>
      <stop style="stop-color:#272727;stop-opacity:1;" offset="1" id="stop3699"/>
    </linearGradient>
    <linearGradient id="linearGradient2903">
      <stop style="stop-color:#000000;stop-opacity:1;" offset="0" id="stop2905"/>
      <stop id="stop2911" offset="0.49788561" style="stop-color:#dfdfdf;stop-opacity:1;"/>
      <stop style="stop-color:#000000;stop-opacity:1;" offset="1" id="stop2907"/>
    </linearGradient>
    <linearGradient id="linearGradient3903">
      <stop style="stop-color:#a19e9e;stop-opacity:1;" offset="0" id="stop3905"/>
      <stop id="stop3907" offset="0.41358757" style="stop-color:#ffffff;stop-opacity:1;"/>
      <stop style="stop-color:#9a9a9a;stop-opacity:1;" offset="1" id="stop3909"/>
    </linearGradient>
    <linearGradient id="linearGradient3895">
      <stop id="stop3897" offset="0" style="stop-color:#ff2a2a;stop-opacity:1;"/>
      <stop style="stop-color:#f97171;stop-opacity:1;" offset="0.41358757" id="stop3899"/>
      <stop id="stop3901" offset="1" style="stop-color:#ff2a2a;stop-opacity:1;"/>
    </linearGradient>
    <linearGradient id="linearGradient3859">
      <stop id="stop3861" offset="0" style="stop-color:#85ffff;stop-opacity:0;"/>
      <stop style="stop-color:#3fa2a2;stop-opacity:1;" offset="0.42293909" id="stop3863"/>
      <stop id="stop3865" offset="1" style="stop-color:#99ffff;stop-opacity:0;"/>
    </linearGradient>
    <linearGradient id="linearGradient3851">
      <stop id="stop3853" offset="0" style="stop-color:#85ffff;stop-opacity:0;"/>
      <stop style="stop-color:#3fa2a2;stop-opacity:1;" offset="0.51544404" id="stop3855"/>
      <stop id="stop3857" offset="1" style="stop-color:#99ffff;stop-opacity:0;"/>
    </linearGradient>
    <linearGradient inkscape:collect="always" id="linearGradient3814">
      <stop style="stop-color:#bef2f3;stop-opacity:1;" offset="0" id="stop3816"/>
      <stop style="stop-color:#bef2f3;stop-opacity:0;" offset="1" id="stop3818"/>
    </linearGradient>
    <linearGradient id="linearGradient3708">
      <stop style="stop-color:#919191;stop-opacity:1;" offset="0" id="stop3710"/>
      <stop style="stop-color:#272727;stop-opacity:1;" offset="1" id="stop3712"/>
    </linearGradient>
    <linearGradient id="linearGradient3664">
      <stop style="stop-color:#000000;stop-opacity:1;" offset="0" id="stop3666"/>
      <stop id="stop3672" offset="0.50247693" style="stop-color:#ffffff;stop-opacity:1;"/>
      <stop style="stop-color:#000000;stop-opacity:1;" offset="1" id="stop3668"/>
    </linearGradient>
    <linearGradient id="linearGradient3646">
      <stop style="stop-color:#85ffff;stop-opacity:0;" offset="0" id="stop3648"/>
      <stop id="stop3654" offset="0.54987133" style="stop-color:#3fa2a2;stop-opacity:1;"/>
      <stop style="stop-color:#99ffff;stop-opacity:0;" offset="1" id="stop3650"/>
    </linearGradient>
    <linearGradient id="linearGradient3615">
      <stop style="stop-color:#ff2a2a;stop-opacity:1;" offset="0" id="stop3617"/>
      <stop id="stop3623" offset="0.5" style="stop-color:#f97171;stop-opacity:1;"/>
      <stop style="stop-color:#ff2a2a;stop-opacity:1;" offset="1" id="stop3619"/>
    </linearGradient>
    <inkscape:perspective sodipodi:type="inkscape:persp3d" inkscape:vp_x="0 : 526.18109 : 1" inkscape:vp_y="0 : 1000 : 0" inkscape:vp_z="744.09448 : 526.18109 : 1" inkscape:persp3d-origin="372.04724 : 350.78739 : 1" id="perspective5522"/>
    <inkscape:perspective id="perspective2820" inkscape:persp3d-origin="0.5 : 0.33333333 : 1" inkscape:vp_z="1 : 0.5 : 1" inkscape:vp_y="0 : 1000 : 0" inkscape:vp_x="0 : 0.5 : 1" sodipodi:type="inkscape:persp3d"/>
    <inkscape:perspective id="perspective3694" inkscape:persp3d-origin="0.5 : 0.33333333 : 1" inkscape:vp_z="1 : 0.5 : 1" inkscape:vp_y="0 : 1000 : 0" inkscape:vp_x="0 : 0.5 : 1" sodipodi:type="inkscape:persp3d"/>
    <filter inkscape:collect="always" id="filter3883" x="-0.14879161" width="1.2975832" y="-0.037576292" height="1.0751526" color-interpolation-filters="sRGB">
      <feGaussianBlur inkscape:collect="always" stdDeviation="1.3053012" id="feGaussianBlur3885"/>
    </filter>
    <filter inkscape:collect="always" id="filter3887" x="-0.37356541" width="1.7471308" y="-0.032619588" height="1.0652392" color-interpolation-filters="sRGB">
      <feGaussianBlur inkscape:collect="always" stdDeviation="1.1635738" id="feGaussianBlur3889"/>
    </filter>
    <filter inkscape:collect="always" id="filter3891" x="-0.22209214" width="1.4441843" y="-0.03468525" height="1.0693705" color-interpolation-filters="sRGB">
      <feGaussianBlur inkscape:collect="always" stdDeviation="1.2275803" id="feGaussianBlur3893"/>
    </filter>
    <inkscape:perspective id="perspective3919" inkscape:persp3d-origin="0.5 : 0.33333333 : 1" inkscape:vp_z="1 : 0.5 : 1" inkscape:vp_y="0 : 1000 : 0" inkscape:vp_x="0 : 0.5 : 1" sodipodi:type="inkscape:persp3d"/>
    <linearGradient inkscape:collect="always" xlink:href="#linearGradient3814-8" id="linearGradient3849-9" gradientUnits="userSpaceOnUse" x1="347.79465" y1="433.55331" x2="380.41965" y2="433.55331"/>
    <linearGradient inkscape:collect="always" id="linearGradient3814-8">
      <stop style="stop-color:#bef2f3;stop-opacity:1;" offset="0" id="stop3816-2"/>
      <stop style="stop-color:#bef2f3;stop-opacity:0;" offset="1" id="stop3818-4"/>
    </linearGradient>
    <linearGradient inkscape:collect="always" xlink:href="#linearGradient3814" id="linearGradient3976" gradientUnits="userSpaceOnUse" x1="347.60715" y1="429.32645" x2="380.60715" y2="429.50507" gradientTransform="matrix(1.0003149,0,0,0.80539679,-0.11467325,88.420097)"/>
    <linearGradient inkscape:collect="always" xlink:href="#linearGradient3664" id="linearGradient3978" gradientUnits="userSpaceOnUse" gradientTransform="matrix(0.1196853,0,0,0.64181013,320.67194,249.70587)" x1="347.60715" y1="429.32645" x2="380.60715" y2="429.50507"/>
    <linearGradient inkscape:collect="always" xlink:href="#linearGradient3664" id="linearGradient3980" gradientUnits="userSpaceOnUse" gradientTransform="matrix(0.98619283,0,0,0.04454257,5.4738821,507.06267)" x1="347.60715" y1="429.32645" x2="380.60715" y2="429.50507"/>
    <linearGradient inkscape:collect="always" xlink:href="#linearGradient3664" id="linearGradient3982" gradientUnits="userSpaceOnUse" gradientTransform="matrix(-0.18213604,0,0,0.23732864,416.94037,419.36177)" x1="347.60715" y1="429.32645" x2="380.60715" y2="429.50507"/>
    <linearGradient inkscape:collect="always" xlink:href="#linearGradient3664" id="linearGradient3984" gradientUnits="userSpaceOnUse" gradientTransform="translate(63.571429,1.0714286)" x1="323.53586" y1="656.27167" x2="339.63306" y2="656.27167"/>
    <linearGradient inkscape:collect="always" xlink:href="#linearGradient3664" id="linearGradient3986" gradientUnits="userSpaceOnUse" x1="323.53586" y1="656.27167" x2="339.63306" y2="656.27167"/>
    <linearGradient inkscape:collect="always" xlink:href="#linearGradient3664" id="linearGradient3988" gradientUnits="userSpaceOnUse" gradientTransform="matrix(0.39789762,0,0,0.23682558,219.19139,433.59637)" x1="347.60715" y1="429.32645" x2="380.60715" y2="429.50507"/>
    <linearGradient inkscape:collect="always" xlink:href="#linearGradient3664" id="linearGradient3990" gradientUnits="userSpaceOnUse" gradientTransform="matrix(-0.18213604,0,0,0.23732864,443.83323,419.36177)" x1="347.60715" y1="429.32645" x2="380.60715" y2="429.50507"/>
    <linearGradient inkscape:collect="always" xlink:href="#linearGradient3814-8" id="linearGradient3992" gradientUnits="userSpaceOnUse" gradientTransform="matrix(1.0003186,0,0,0.80335217,-0.11601917,88.867839)" x1="364.58035" y1="433.91046" x2="369.70535" y2="416.05331"/>
    <linearGradient inkscape:collect="always" xlink:href="#linearGradient3646" id="linearGradient3994" gradientUnits="userSpaceOnUse" x1="313.77759" y1="483.45773" x2="406.87039" y2="483.45773"/>
    <linearGradient inkscape:collect="always" xlink:href="#linearGradient3903" id="linearGradient3996" gradientUnits="userSpaceOnUse" x1="313.02792" y1="598.09235" x2="424.61902" y2="598.09235"/>
    <linearGradient inkscape:collect="always" xlink:href="#linearGradient3814" id="linearGradient3998" gradientUnits="userSpaceOnUse" x1="389.49548" y1="479.13196" x2="432.84317" y2="479.13196"/>
    <linearGradient inkscape:collect="always" xlink:href="#linearGradient3708" id="linearGradient4000" gradientUnits="userSpaceOnUse" x1="365.65042" y1="595.922" x2="366.07144" y2="616.46625"/>
    <linearGradient inkscape:collect="always" xlink:href="#linearGradient3664" id="linearGradient4002" gradientUnits="userSpaceOnUse" x1="363.40237" y1="621.78973" x2="363.40237" y2="632.51245"/>
    <linearGradient inkscape:collect="always" xlink:href="#linearGradient3646" id="linearGradient4004" gradientUnits="userSpaceOnUse" x1="361.17908" y1="489.3284" x2="368.65457" y2="489.3284"/>
    <linearGradient inkscape:collect="always" xlink:href="#linearGradient3859" id="linearGradient4006" gradientUnits="userSpaceOnUse" x1="376.99246" y1="490.84128" x2="398.04691" y2="496.39713"/>
    <linearGradient inkscape:collect="always" xlink:href="#linearGradient3646" id="linearGradient4008" gradientUnits="userSpaceOnUse" x1="335.40674" y1="491.86636" x2="348.67239" y2="490.0986"/>
    <linearGradient inkscape:collect="always" xlink:href="#linearGradient2903" id="linearGradient2909" x1="321.00067" y1="426.9295" x2="406.31586" y2="428.80164" gradientUnits="userSpaceOnUse"/>
    <radialGradient inkscape:collect="always" xlink:href="#linearGradient3695" id="radialGradient3693" cx="366.1803" cy="80.090355" fx="366.1803" fy="80.090355" r="144.95689" gradientTransform="matrix(1.1428571,0.00865073,-0.0014181,0.12831375,-52.197893,66.645935)" gradientUnits="userSpaceOnUse"/>
    <linearGradient inkscape:collect="always" xlink:href="#linearGradient3814-8" id="linearGradient3705" gradientUnits="userSpaceOnUse" gradientTransform="matrix(1.0017536,0,0,0.18465838,-0.63848088,338.51711)" x1="364.58035" y1="433.91046" x2="369.70535" y2="416.05331"/>
    <linearGradient inkscape:collect="always" xlink:href="#linearGradient3814" id="linearGradient3709" gradientUnits="userSpaceOnUse" gradientTransform="matrix(0.98120632,0,0,0.18099377,6.5085696,340.0383)" x1="347.60715" y1="429.32645" x2="380.60715" y2="429.50507"/>
  </defs>
  <sodipodi:namedview id="base" pagecolor="#ffffff" bordercolor="#666666" borderopacity="1.0" inkscape:pageopacity="0.0" inkscape:pageshadow="2" inkscape:zoom="0.7" inkscape:cx="393.28168" inkscape:cy="676.79483" inkscape:document-units="px" inkscape:current-layer="g3949" showgrid="false" inkscape:window-width="1024" inkscape:window-height="690" inkscape:window-x="-4" inkscape:window-y="-4" inkscape:window-maximized="1" inkscape:snap-grids="false" inkscape:snap-to-guides="false" inkscape:snap-page="false" inkscape:snap-nodes="false"/>
  <metadata id="metadata5519">
    <rdf:RDF>
      <cc:Work rdf:about="">
        <dc:format>image/svg+xml</dc:format>
        <dc:type rdf:resource="http://purl.org/dc/dcmitype/StillImage"/>
        <dc:title>Kitchen mixer</dc:title>
        <dc:creator>
          <cc:Agent>
            <dc:title>Jan Helebrant</dc:title>
          </cc:Agent>
        </dc:creator>
        <dc:rights>
          <cc:Agent>
            <dc:title>Jan Helebrant</dc:title>
          </cc:Agent>
        </dc:rights>
        <dc:publisher>
          <cc:Agent>
            <dc:title>Jan Helebrant</dc:title>
          </cc:Agent>
        </dc:publisher>
        <dc:subject>
          <rdf:Bag>
            <rdf:li>kitchen</rdf:li>
            <rdf:li>blender</rdf:li>
            <rdf:li>mixer</rdf:li>
            <rdf:li>food</rdf:li>
            <rdf:li>Jan Helebrant</rdf:li>
          </rdf:Bag>
        </dc:subject>
        <cc:license rdf:resource="http://creativecommons.org/licenses/publicdomain/"/>
      </cc:Work>
      <cc:License rdf:about="http://creativecommons.org/licenses/publicdomain/">
        <cc:permits rdf:resource="http://creativecommons.org/ns#Reproduction"/>
        <cc:permits rdf:resource="http://creativecommons.org/ns#Distribution"/>
        <cc:permits rdf:resource="http://creativecommons.org/ns#DerivativeWorks"/>
      </cc:License>
    </rdf:RDF>
  </metadata>
  <g inkscape:groupmode="layer" id="layer2" inkscape:label="01" style="display:inline">
    <g id="g3949" transform="matrix(3.7770376,0,0,3.7770376,-1010.4011,-1515.7709)">
      <path style="fill:url(#linearGradient3976);fill-opacity:1;stroke:#000000;stroke-width:0.08975803;stroke-miterlimit:4;stroke-opacity:1;stroke-dasharray:none" d="m 352.32831,422.83641 23.55768,0 c 2.47985,0 4.47627,1.6074 4.47627,3.60405 l 0,25.92823 c 0.97515,2.72065 -32.56793,2.53383 -32.51023,0 l 0,-25.92823 c 0,-1.99665 1.99642,-3.60405 4.47628,-3.60405 z" id="path3657" sodipodi:nodetypes="ccccccc"/>
      <path style="fill:url(#linearGradient3978);fill-opacity:1;stroke:#000000;stroke-width:0.1;stroke-miterlimit:4;stroke-opacity:1;stroke-dasharray:none" d="m 362.84091,516.19788 2.81862,0 c 0.29671,0 0.53559,1.28092 0.53559,2.87203 l 0,20.66188 c 0.11667,2.16804 -3.89668,2.01915 -3.88978,0 l 0,-20.66188 c 0,-1.59111 0.23886,-2.87203 0.53557,-2.87203 z" id="path3741" sodipodi:nodetypes="ccccccc"/>
      <path style="fill:url(#linearGradient3980);fill-opacity:1;stroke:#000000;stroke-width:0.1;stroke-miterlimit:4;stroke-opacity:1;stroke-dasharray:none" d="m 352.94118,525.55761 23.22509,0 c 2.44485,0 4.41308,0.0889 4.41308,0.19932 l 0,1.43396 c 0.9614,0.15047 -32.10813,0.14014 -32.05125,0 l 0,-1.43396 c 0,-0.11043 1.96821,-0.19932 4.41308,-0.19932 z" id="path3745" sodipodi:nodetypes="ccccccc"/>
      <path style="fill:url(#linearGradient3982);fill-opacity:1;stroke:#000000;stroke-width:0.1;stroke-miterlimit:4;stroke-opacity:1;stroke-dasharray:none" d="m 348.61064,518.08336 0.12627,8.39796 c -0.17756,0.8017 4.85663,0.87292 4.84613,0.12627 l 0,-5.64035 -4.9724,-2.88388 z" id="path3749" sodipodi:nodetypes="ccccc"/>
      <path style="fill:url(#linearGradient3984);fill-opacity:1;stroke:#000000;stroke-width:0.2;stroke-linecap:butt;stroke-linejoin:miter;stroke-miterlimit:4;stroke-opacity:1;stroke-dasharray:none" d="m 392.67699,651.67486 c 1.07282,5.21973 -9.88335,8.23834 -3.4116,10.92958 3.56839,-0.22165 7.57582,0.70968 11.06286,0.30256 7.28898,-2.8499 -1.96418,-4.46755 -2.97238,-11.05377 l -4.67888,-0.17837 z" id="path3676" sodipodi:nodetypes="ccccc"/>
      <path sodipodi:nodetypes="ccccc" id="path3661" d="m 329.10556,650.60343 c 1.07282,5.21973 -9.88335,8.23834 -3.4116,10.92958 3.56839,-0.22165 7.57582,0.70968 11.06286,0.30256 7.28898,-2.8499 -1.96418,-4.46755 -2.97238,-11.05377 l -4.67888,-0.17837 z" style="fill:url(#linearGradient3986);fill-opacity:1;stroke:#000000;stroke-width:0.2;stroke-linecap:butt;stroke-linejoin:miter;stroke-miterlimit:4;stroke-opacity:1;stroke-dasharray:none"/>
      <path sodipodi:nodetypes="ccccccc" id="path3737" d="m 359.38347,531.93093 9.37059,0 c 0.98642,0 1.78054,0.47266 1.78054,1.05977 l 0,7.62415 c 0.38789,0.8 -12.95462,0.74507 -12.93167,0 l 0,-7.62415 c 0,-0.58711 0.79411,-1.05977 1.78054,-1.05977 z" style="fill:url(#linearGradient3988);fill-opacity:1;stroke:#000000;stroke-width:0.1;stroke-miterlimit:4;stroke-opacity:1;stroke-dasharray:none"/>
      <path sodipodi:nodetypes="ccccc" id="path3757" d="m 375.5035,518.08336 0.12627,8.39796 c -0.17756,0.8017 4.85663,0.87292 4.84613,0.12627 l 0,-5.64035 -4.9724,-2.88388 z" style="fill:url(#linearGradient3990);fill-opacity:1;stroke:#000000;stroke-width:0.1;stroke-miterlimit:4;stroke-opacity:1;stroke-dasharray:none"/>
      <path sodipodi:nodetypes="ccccccc" id="rect3634" d="m 352.32827,422.43519 23.55776,0 c 2.47986,0 4.4763,1.60332 4.4763,3.59489 l 0,25.86241 c -11.52883,-2.45066 -21.85035,-1.63282 -32.51036,0 l 0,-25.86241 c 0,-1.99157 1.99643,-3.59489 4.4763,-3.59489 z" style="fill:url(#linearGradient3992);fill-opacity:1;stroke:#000000;stroke-width:0.08964419;stroke-miterlimit:4;stroke-opacity:1;stroke-dasharray:none;display:inline"/>
      <path sodipodi:nodetypes="ccccccccc" id="rect3822" d="m 400.60315,435.0949 c -27.08848,1.61572 -43.69531,1.41376 -73.68835,0 -2.9384,0 -5.30396,-1.89162 -5.30396,-4.24129 l 0,-4.94171 c 0,-2.34967 2.36556,-4.24128 5.30396,-4.24128 24.94164,2.52458 49.25185,1.71671 73.68835,0 2.9384,0 5.30396,1.89161 5.30396,4.24128 l 0,4.94171 c 0,2.34967 -2.36556,4.24129 -5.30396,4.24129 z" style="fill:url(#linearGradient2909);fill-opacity:1;stroke:none;stroke-width:0.08943400000000000;stroke-miterlimit:4;stroke-opacity:1"/>
      <path sodipodi:nodetypes="ccccsc" id="path3625" d="m 338.66053,541.39433 c -11.09291,-19.72228 -16.01827,-77.09362 -15.63775,-100.9296 1.3248,-5.66026 -5.98552,-12.17705 -9.1452,-13.76223 45.63288,4.42724 54.1229,4.56879 92.61292,-1.3611 0.75861,11.3167 0.14336,33.14261 -3.95073,61.30772 -3.5459,24.3939 -5.81643,48.6774 -17.28155,54.92493" style="fill:url(#linearGradient3994);fill-opacity:1;stroke:#000000;stroke-width:0.1;stroke-linecap:butt;stroke-linejoin:miter;stroke-miterlimit:4;stroke-opacity:1;stroke-dasharray:none"/>
      <path sodipodi:nodetypes="czsccccszcc" id="path3606" d="m 338.8125,540.4375 c -5.06272,8.84614 -6.59351,9.65295 -12.90625,25.21875 -6.31274,15.5658 -9.84735,49.48062 -11.21875,62.9375 -1.3714,13.45688 -1.48743,13.74573 -0.55357,17.37946 2.19221,5.35071 9.75941,5.87954 14.53125,7.09375 24.0997,3.39286 46.77083,3.75 70.15625,0 4.77184,-1.21421 12.33904,-1.74304 14.53125,-7.09375 0.93386,-3.63373 1.17497,-3.92258 -0.19643,-17.37946 -1.3714,-13.45688 -4.90601,-47.3717 -11.21875,-62.9375 -6.31274,-15.5658 -7.84353,-16.37261 -12.90625,-25.21875 -16.73958,1.78571 -33.47917,1.42857 -50.21875,0 z" style="fill:url(#linearGradient3996);fill-opacity:1;stroke:#000303;stroke-width:0.2;stroke-linecap:butt;stroke-linejoin:miter;stroke-miterlimit:4;stroke-opacity:1;stroke-dasharray:none"/>
      <path sodipodi:nodetypes="casssaaaaaccaaaaa" id="path3631" d="m 404.35262,435.74104 c 1.58208,0.39505 2.04694,3.2817 3.15991,3.73447 5.95223,2.42143 13.72178,3.58395 18.57558,5.15556 8.47713,2.74481 6.53952,9.39488 6.29285,14.50706 -0.8053,16.68988 -7.15651,46.18814 -10.66617,49.31357 -7.50884,6.68677 -16.88276,11.99027 -26.74471,13.9492 -1.10124,0.21875 -2.45394,0.37174 -3.35507,-0.298 -2.47523,-1.83962 -2.30408,-5.81666 -1.44117,-8.5882 0.50648,-1.62675 1.85505,-3.72597 3.5579,-3.66974 1.91652,0.0633 1.83397,4.05683 3.72318,4.38534 6.99425,1.21622 14.52905,-4.71483 18.45546,-10.62939 6.10424,-10.85109 7.90176,-37.02589 8.644,-50.89928 -3.47015,-3.70781 -11.29104,-5.32948 -17.28381,-5.02974 -1.51188,0.0756 -2.36254,3.96186 -4.21205,3.6977 -2.34501,-0.33494 -3.28642,-2.23185 -3.81447,-3.99594 -1.00562,-3.35956 -0.33309,-7.63624 1.88848,-10.34964 0.73196,-0.894 2.09909,-1.56289 3.22009,-1.28297 z" style="fill:url(#linearGradient3998);fill-opacity:1;stroke:#000000;stroke-width:0.1;stroke-linecap:butt;stroke-linejoin:miter;stroke-miterlimit:4;stroke-opacity:1;stroke-dasharray:none"/>
      <path style="fill:#000000;stroke:#000000;stroke-width:0.1;stroke-linecap:butt;stroke-linejoin:miter;stroke-miterlimit:4;stroke-opacity:1;stroke-dasharray:none" d="m 325.37054,567.20026 -1.03923,2.61789 c 29.48726,7.81856 79.12642,0.088 79.12642,0.088 0,0 2.43481,5.60995 -0.98452,-2.82133 -12.86597,3.18569 -72.22447,4.46826 -77.10267,0.11544 z" id="path3659" sodipodi:nodetypes="ccccc"/>
      <rect ry="10.4203" y="591.56616" x="351.3468" height="53.377815" width="23.734961" id="rect3684" style="fill:#999999;fill-opacity:1;stroke:#000000;stroke-width:0.5;stroke-miterlimit:4;stroke-opacity:1;stroke-dasharray:none"/>
      <path transform="translate(-2.7932888,-0.34550106)" d="m 372.85716,606.11218 c 0,3.64903 -3.03807,6.60715 -6.78572,6.60715 -3.74764,0 -6.78571,-2.95812 -6.78571,-6.60715 0,-3.64902 3.03807,-6.60714 6.78571,-6.60714 3.74765,0 6.78572,2.95812 6.78572,6.60714 z" sodipodi:ry="6.6071429" sodipodi:rx="6.7857141" sodipodi:cy="606.11218" sodipodi:cx="366.07144" id="path3680" style="fill:url(#linearGradient4000);fill-opacity:1;stroke:#000000;stroke-width:0.1;stroke-miterlimit:4;stroke-opacity:1;stroke-dasharray:none" sodipodi:type="arc"/>
      <path transform="translate(-0.14657416,-0.63134534)" d="m 369.8421,627.84558 c 0,3.76577 -2.88317,6.81853 -6.43973,6.81853 -3.55656,0 -6.43972,-3.05276 -6.43972,-6.81853 0,-3.76577 2.88316,-6.81853 6.43972,-6.81853 3.55656,0 6.43973,3.05276 6.43973,6.81853 z" sodipodi:ry="6.8185296" sodipodi:rx="6.4397225" sodipodi:cy="627.84558" sodipodi:cx="363.40237" id="path3716" style="fill:#999999;fill-opacity:1;stroke:#000000;stroke-width:0.5;stroke-miterlimit:4;stroke-opacity:1;stroke-dasharray:none" sodipodi:type="arc"/>
      <rect ry="0.25253808" y="622.28973" x="360.87698" height="9.7227182" width="5.0507627" id="rect3718" style="fill:url(#linearGradient4002);fill-opacity:1;stroke:#000000;stroke-width:0.5;stroke-miterlimit:4;stroke-opacity:1;stroke-dasharray:none"/>
      <path sodipodi:nodetypes="ccccc" id="rect3720" d="m -30.909391,-724.9523 -1.011041,4.37934 -4.236322,-1.94723 0.892114,-4.43656 4.355249,2.00445 z" style="fill:#999999;fill-opacity:1;stroke:#000000;stroke-width:0.50018269;stroke-miterlimit:4;stroke-opacity:1;stroke-dasharray:none" transform="matrix(-0.90430489,0.42688718,-0.46112976,-0.88733271,0,0)"/>
      <path id="path3723" d="m 371.25,627.00504 2.23214,0" style="fill:none;stroke:#000000;stroke-width:1px;stroke-linecap:butt;stroke-linejoin:miter;stroke-opacity:1"/>
      <path id="path3725" d="m 369.94644,621.55861 1.78571,-1.25" style="fill:none;stroke:#000000;stroke-width:1px;stroke-linecap:butt;stroke-linejoin:miter;stroke-opacity:1"/>
      <path style="fill:none;stroke:#000000;stroke-width:1px;stroke-linecap:butt;stroke-linejoin:miter;stroke-opacity:1" d="m 370.39287,631.7729 1.78571,1.25" id="path3727"/>
      <path sodipodi:nodetypes="csccscc" id="path3765" d="m 368.65456,505.64258 c -0.82078,14.63439 -2.18845,26.49103 -3.73695,26.49103 -1.5495,0 -2.91792,-11.87189 -3.73852,-26.51927 l 0.1735,-42.8462 c 0.83262,-9.89648 2.12009,-16.24496 3.56502,-16.24496 1.51115,0 2.34501,5.68102 3.17153,16.365 l 0.56542,42.7544 z" style="opacity:0.5;fill:url(#linearGradient4004);fill-opacity:1;stroke:none;filter:url(#filter3887)"/>
      <path style="opacity:0.5;fill:url(#linearGradient4006);fill-opacity:1;stroke:none;filter:url(#filter3883)" d="m 387.30621,507.58029 c -4.14099,14.06027 -8.18009,25.2913 -9.68767,24.93769 -1.50856,-0.35384 -0.12977,-12.22453 2.41617,-26.67228 l 9.95323,-41.67445 c 3.07057,-9.44485 5.77375,-15.33158 7.1805,-15.00162 1.47122,0.34509 0.98574,6.06641 -0.64936,16.65684 l -9.21287,41.75382 z" id="path3784" sodipodi:nodetypes="csccscc"/>
      <path sodipodi:nodetypes="csccscc" id="path3786" d="m 340.48862,508.52117 c 2.64969,14.4159 5.49357,26.00739 7.02984,25.81319 1.53727,-0.19433 1.40596,-12.1441 0.38307,-26.77875 l -5.54572,-42.48614 c -2.06722,-9.71391 -4.14072,-15.8508 -5.57424,-15.66959 -1.49921,0.18953 -1.61401,5.93027 -1.09406,16.63356 l 4.80111,42.48773 z" style="opacity:0.5;fill:url(#linearGradient4008);fill-opacity:1;stroke:none;filter:url(#filter3891)"/>
      <path sodipodi:type="arc" style="fill:url(#radialGradient3693);fill-opacity:1;stroke:none" id="path3685" sodipodi:cx="366.1803" sodipodi:cy="80.090355" sodipodi:rx="144.95689" sodipodi:ry="6.0609155" d="m 511.13719,80.090355 c 0,3.347351 -64.89941,6.060915 -144.95689,6.060915 -80.05748,0 -144.9569,-2.713564 -144.9569,-6.060915 0,-3.347351 64.89942,-6.060916 144.9569,-6.060916 80.05748,0 144.95689,2.713565 144.95689,6.060916 z" transform="matrix(0.26475776,0,0,0.31991562,267.11036,396.42645)"/>
      <path sodipodi:nodetypes="ccccccc" id="path3707" d="m 352.21898,415.1904 23.10767,0 c 2.43248,0 4.39076,0.36122 4.39076,0.80992 l 0,5.82676 c -4.93751,1.61437 -29.32622,1.37179 -31.8892,0 l 0,-5.82676 c 0,-0.4487 1.95829,-0.80992 4.39077,-0.80992 z" style="fill:url(#linearGradient3709);fill-opacity:1;stroke:#000000;stroke-width:0.04214169;stroke-miterlimit:4;stroke-opacity:1;stroke-dasharray:none"/>
    </g>
  </g>
</svg>