<?xml version="1.0" encoding="UTF-8"?>
<svg xmlns="http://www.w3.org/2000/svg" xmlns:xlink="http://www.w3.org/1999/xlink" width="458.54pt" height="71.45pt" viewBox="0 0 458.54 71.45" version="1.1">
<defs>
<clipPath id="clip1">
  <path d="M 353 0 L 458.539063 0 L 458.539063 53 L 353 53 Z M 353 0 "/>
</clipPath>
<clipPath id="clip2">
  <path d="M 116 0 L 225 0 L 225 71.449219 L 116 71.449219 Z M 116 0 "/>
</clipPath>
<clipPath id="clip3">
  <path d="M 235 0 L 344 0 L 344 71.449219 L 235 71.449219 Z M 235 0 "/>
</clipPath>
</defs>
<g id="surface1">
<path style=" stroke:none;fill-rule:nonzero;fill:rgb(0.799561%,0.799561%,0.799561%);fill-opacity:1;" d="M 47.398438 45.144531 C 37.429688 45.144531 11.863281 41.136719 11.863281 25.875 C 11.863281 15.214844 27.777344 6.609375 47.398438 6.609375 C 67.019531 6.609375 82.914063 15.214844 82.914063 25.875 C 82.914063 36.503906 67.019531 45.144531 47.398438 45.144531 Z M 52.746094 0.00390625 C 23.609375 0.00390625 0 11.769531 0 26.265625 C 0 40.789063 23.609375 52.542969 52.746094 52.542969 C 81.859375 52.542969 105.476563 40.789063 105.476563 26.265625 C 105.476563 11.769531 81.859375 0.00390625 52.746094 0.00390625 "/>
<g clip-path="url(#clip1)" clip-rule="nonzero">
<path style=" stroke:none;fill-rule:nonzero;fill:rgb(0.799561%,0.799561%,0.799561%);fill-opacity:1;" d="M 400.460938 45.144531 C 390.492188 45.144531 364.925781 41.136719 364.925781 25.875 C 364.925781 15.214844 380.839844 6.609375 400.460938 6.609375 C 420.078125 6.609375 435.972656 15.214844 435.972656 25.875 C 435.972656 36.503906 420.078125 45.144531 400.460938 45.144531 Z M 405.804688 0.00390625 C 376.671875 0.00390625 353.0625 11.769531 353.0625 26.265625 C 353.0625 40.789063 376.671875 52.542969 405.804688 52.542969 C 434.921875 52.542969 458.535156 40.789063 458.535156 26.265625 C 458.535156 11.769531 434.921875 0.00390625 405.804688 0.00390625 "/>
</g>
<g clip-path="url(#clip2)" clip-rule="nonzero">
<path style=" stroke:none;fill-rule:nonzero;fill:rgb(0.799561%,0.799561%,0.799561%);fill-opacity:1;" d="M 171.664063 0.00390625 C 162.894531 0.00390625 154.632813 1.078125 147.355469 2.960938 L 147.355469 9.582031 C 152.84375 7.703125 159.347656 6.609375 166.316406 6.609375 C 185.9375 6.609375 201.832031 15.214844 201.832031 25.875 C 201.832031 36.503906 185.9375 45.144531 166.316406 45.144531 C 152.808594 45.144531 141.058594 41.042969 135.046875 35.027344 L 135.046875 1.558594 L 116.421875 1.558594 L 116.421875 71.449219 L 135.046875 71.449219 L 135.046875 45.175781 C 144.535156 49.734375 157.433594 52.542969 171.664063 52.542969 C 200.777344 52.542969 224.394531 40.789063 224.394531 26.265625 C 224.394531 11.769531 200.777344 0.00390625 171.664063 0.00390625 "/>
</g>
<g clip-path="url(#clip3)" clip-rule="nonzero">
<path style=" stroke:none;fill-rule:nonzero;fill:rgb(0.799561%,0.799561%,0.799561%);fill-opacity:1;" d="M 290.582031 0.00390625 C 281.808594 0.00390625 273.550781 1.078125 266.273438 2.960938 L 266.273438 9.582031 C 271.761719 7.703125 278.261719 6.609375 285.234375 6.609375 C 304.855469 6.609375 320.75 15.214844 320.75 25.875 C 320.75 36.503906 304.855469 45.144531 285.234375 45.144531 C 271.726563 45.144531 259.972656 41.042969 253.964844 35.027344 L 253.964844 1.558594 L 235.339844 1.558594 L 235.339844 71.449219 L 253.964844 71.449219 L 253.964844 45.175781 C 263.449219 49.734375 276.351563 52.542969 290.582031 52.542969 C 319.695313 52.542969 343.308594 40.789063 343.308594 26.265625 C 343.308594 11.769531 319.695313 0.00390625 290.582031 0.00390625 "/>
</g>
</g>
</svg>
