<?xml version="1.0" encoding="UTF-8" standalone="no"?>
<!-- Created with Inkscape (http://www.inkscape.org/) -->

<svg
     xmlns:dc="http://purl.org/dc/elements/1.1/"
     xmlns:cc="http://creativecommons.org/ns#"
     xmlns:rdf="http://www.w3.org/1999/02/22-rdf-syntax-ns#"
     xmlns:svg="http://www.w3.org/2000/svg"
     xmlns="http://www.w3.org/2000/svg"
     xmlns:sodipodi="http://sodipodi.sourceforge.net/DTD/sodipodi-0.dtd"
     xmlns:inkscape="http://www.inkscape.org/namespaces/inkscape"
     width="607.4"
     height="438.1"
     id="svg5002"
     version="1.1"
     inkscape:version="0.48.5 r10040"
     sodipodi:docname="cafe04complete.svg">
    <defs
         id="defs5004" />
    <sodipodi:namedview
         id="base"
         pagecolor="#ffffff"
         bordercolor="#666666"
         borderopacity="1.0"
         inkscape:pageopacity="0.0"
         inkscape:pageshadow="2"
         inkscape:zoom="1.22"
         inkscape:cx="271.6"
         inkscape:cy="124.9"
         inkscape:document-units="px"
         inkscape:current-layer="layer1"
         showgrid="false"
         fit-margin-top="0"
         fit-margin-left="0"
         fit-margin-right="0"
         fit-margin-bottom="0"
         inkscape:window-width="1920"
         inkscape:window-height="1106"
         inkscape:window-x="0"
         inkscape:window-y="32"
         inkscape:window-maximized="1" />
    <metadata
         id="metadata5007">
        <rdf:RDF>
            <cc:Work
                 rdf:about="">
                <dc:format>image/svg+xml</dc:format>
                <dc:type
                     rdf:resource="http://purl.org/dc/dcmitype/StillImage" />
                <dc:title />
            </cc:Work>
        </rdf:RDF>
    </metadata>
    <g
         inkscape:label="Layer 1"
         inkscape:groupmode="layer"
         id="layer1"
         transform="translate(27.41,-421.6)">
        <g
             id="g5801"
             transform="translate(2,-2)">
            <path
                 inkscape:connector-curvature="0"
                 id="rect5061"
                 d="M 267.9,442.9 C 261.3,442.9 255.1,442.9 249.2,443.9 194.9,451.9 119,471.9 72.38,490.9 50.4,498.9 7.604,520.9 -21.39,538.9 -29.09,542.9 -30.09,543.9 -29.09,544.9 -27.09,544.9 -19.2,547.9 -10.5,550.9 -1.696,553.9 11,558.9 17.9,561.9 24.6,564.9 32.2,567.9 34.6,568.9 37.1,569.9 50.9,570.9 65.2,571.9 117.5,575.9 152.5,579.9 179.6,584.9 186.6,586.9 194.2,587.9 196.3,587.9 198.4,586.9 205,585.9 210.8,585.9 217.9,584.9 238.3,583.9 274.1,583.9 318.9,583.9 328.8,584.9 339.2,585.9 L 351.4,587.9 364.9,585.9 C 392,579.9 430.7,574.9 483,571.9 L 510.2,569.9 525.8,562.9 C 534.3,558.9 548.8,552.9 556.8,550.9 565.8,547.9 573.8,544.9 574.8,544.9 579.8,542.9 507,503.9 475.1,490.9 446.8,479.9 405.8,467.9 364.7,457.9 320.7,446.9 291.4,441.9 267.9,442.9 z"
                 style="fill:#d3bc5f;fill-opacity:1;stroke:none" />
            <path
                 inkscape:connector-curvature="0"
                 id="rect5061-3"
                 d="M 267.8,442.1 C 254.7,443.1 103,492.1 35.6,567.1 L 74.98,572.1 C 121.4,576.1 153.6,579.1 178.8,584.1 180.4,585.1 182,585.1 183.6,585.1 L 194.9,587.1 C 207.3,503.1 260.3,448.1 268.3,442.1 268.2,442.1 268,442.1 267.8,442.1 z"
                 style="fill:#d38d5f;fill-opacity:1;stroke:none" />
            <path
                 style="fill:#d38d5f;fill-opacity:1;stroke:none"
                 d="M 279.1,443.4 C 292.2,444.4 443.9,493.4 510.8,568.4 L 471.8,573.4 C 425.5,577.4 393.3,580.4 368.1,585.4 366.5,586.4 364.9,586.4 363.3,586.4 L 352,588.4 C 339.6,504.4 286.6,449.4 278.6,443.4 278.7,443.4 278.9,443.4 279.1,443.4 z"
                 id="use5138"
                 inkscape:connector-curvature="0" />
            <path
                 inkscape:connector-curvature="0"
                 id="use5090"
                 d="M 549.8,526 C 542.8,529 534.8,532 528.8,535 L 513.5,542 486.3,544 C 434,547 395.3,552 368.2,558 L 354.7,560 342.5,558 C 332.1,557 322.2,556 277.4,556 241.6,556 221.2,557 214.1,558 208.3,558 201.7,559 199.6,560 197.5,560 189.9,559 182.9,557 155.8,552 120.8,548 68.5,544 54.2,543 40.4,542 37.9,541 35.5,540 27.9,537 21.2,534 16.7,532 9.604,529 2.804,527 -4.596,531 -11.7,535 -18.1,539 -25.89,543 -26.89,544 -24.89,545 -23.89,545 -15.9,548 -7.196,551 1.604,554 14.3,559 21.2,562 27.9,565 35.5,568 37.9,569 40.4,570 54.2,571 68.5,572 120.8,576 155.8,580 182.9,585 189.9,587 197.5,588 199.6,588 201.7,587 208.3,586 214.1,586 221.2,585 241.6,584 277.4,584 322.2,584 332.1,585 342.5,586 L 354.7,588 368.2,586 C 395.3,580 434,575 486.3,572 L 513.5,570 528.8,563 C 537.8,559 551.8,553 559.8,551 568.8,548 576.8,545 577.8,545 579.8,544 566.8,536 549.8,526 z"
                 style="opacity:0.05;fill:#000000;fill-opacity:1;stroke:none" />
        </g>
        <g
             id="g8763">
            <path
                 style="fill:#494844;fill-rule:evenodd"
                 d="M 268.9,831.1 266.1,852.6 C 267.7,854 269.9,855.1 272.8,855.6 278.3,857.1 284.2,856.3 290.3,853.1 L 289.3,831.6 C 289.2,831.1 288.8,830.6 288.1,829.9 286.6,828.5 284.2,827.6 280.9,827.1 277.1,826.5 273.9,826.9 271.4,828.5 270.2,829.3 269.3,830.1 268.9,831.1 z"
                 id="path8286"
                 inkscape:connector-curvature="0" />
            <path
                 transform="matrix(0.9181,0,0,0.9181,-128.8,410.3)"
                 d="M 455,458.9 C 455,461.8 450.1,464.1 444.2,464.1 438.3,464.1 433.5,461.8 433.5,458.9 433.5,456 438.3,453.6 444.2,453.6 450.1,453.6 455,456 455,458.9 z"
                 sodipodi:ry="5.25"
                 sodipodi:rx="10.75"
                 sodipodi:cy="458.9"
                 sodipodi:cx="444.2"
                 id="path8358"
                 style="fill:#6e554b;fill-opacity:1;stroke:none"
                 sodipodi:type="arc" />
            <path
                 sodipodi:nodetypes="ccccccc"
                 style="fill:#494844;fill-rule:evenodd"
                 d="M 271.6,581.6 271.6,831.4 C 272.8,832.4 274.4,833.1 276.3,833.8 280.1,834.8 283.4,834 286.4,831.4 285,781.1 284.6,742.9 285.1,716.6 285.6,686.7 286,597.6 286,581.6 280,579.7 274.9,581.7 271.6,581.6 z"
                 id="path8298"
                 inkscape:connector-curvature="0" />
        </g>
        <g
             id="g3060"
             transform="translate(15.67,10.1)">
            <g
                 id="g3046">
                <path
                     inkscape:connector-curvature="0"
                     id="path8181"
                     d="M 61.9,631.3 C 67.1,631.4 72.5,631.8 78.2,632.6 88.7,634.1 97,638.1 103.2,644.7 108.3,650.1 111.6,657.1 113.2,665.7 114.6,673.2 114.9,695.5 114.2,732.4 L 114.2,732.4 C 114.1,735.4 114.1,738.3 114,741.5 L 113.9,742.8 C 113.6,743.4 113.4,744 113,744.5 L 112.9,745 C 112.6,745.5 112.2,745.9 111.7,746.3 114.7,747.8 117.4,749.3 119.9,750.6 122.4,751.9 124.8,753.1 126.9,754.2 135.8,759 141.7,762.5 144.5,764.6 150.5,769.2 153.7,772.7 154.2,775.1 154.5,776.5 154.7,778.7 154.7,781.8 154.6,785.4 154.1,787.5 153.3,788.1 152.7,788.6 151.7,789.1 150.4,789.7 149.6,790.1 148.5,790.7 147.4,791.2 147.1,791.3 146.9,791.4 146.6,791.5 146.4,791.5 146.2,791.6 146,791.7 L 146.5,795 146.5,795.2 151.1,825.5 C 151.7,829.1 152.3,832.2 153,834.7 L 152.2,835.3 C 152.3,835.3 152.3,835.3 152.3,835.3 L 151.5,836.2 C 148.9,838.3 146.1,839.2 143.1,838.7 139.2,838.1 137,836.8 136.7,835 135.6,816.7 135.1,805.3 135.1,800.8 L 135.1,795.6 C 128.9,797.5 122.5,799 116,799.9 115.5,800 115,800 114.4,800.1 L 114.9,806.9 114.9,806.9 114.9,807.6 113.2,809 C 112.1,809.6 111.1,810.1 110,810.5 110,810.5 109.9,810.5 109.9,810.5 109.8,810.6 109.6,810.6 109.5,810.7 108.5,811 107.5,811.1 106.5,811 105.8,811 105.2,810.9 104.5,810.7 100.5,809.8 98.5,808.4 98.2,806.4 98.3,804.6 98.3,803.2 98.4,801.6 92.8,801.8 87.1,801.9 81.1,801.8 77.8,801.8 74.6,801.7 71.2,801.5 69.7,801.4 68.3,801.3 67,801.2 65.1,801.1 63.4,801 61.7,800.8 L 64.7,846.6 C 64.7,846.6 64.7,846.6 64.7,846.6 L 64.7,847.3 61.8,849.5 C 59.9,850.5 58.1,850.9 56.2,850.8 55.6,850.8 54.9,850.7 54.3,850.5 50.4,849.5 48.3,848 48,846.1 48.7,827.3 49.3,815.7 49.7,811 L 50.6,801.8 C 50.8,801 51,800.2 51.3,799.5 51.3,799.5 51.2,799.5 51.2,799.5 50.5,799.4 49.8,799.2 49.1,799.1 48.5,798.9 47.9,798.8 47.4,798.6 45.6,798.1 43.6,797.1 41.4,795.8 39.1,794.6 36.6,792.9 33.9,790.9 32.5,790 31.3,789.1 30.1,788.2 29.5,787.8 29,787.3 28.4,786.9 27.8,786.3 27.2,785.8 26.6,785.3 L 26.9,792 27,792.8 27,792.8 27.5,802.3 C 27.7,806 28,809.1 28.5,811.7 L 28.5,811.7 28.5,811.9 25.4,814.1 C 23.5,815.1 21.7,815.6 19.9,815.4 19.6,815.4 19.3,815.4 19,815.3 18.7,815.3 18.4,815.2 18.1,815.1 L 17.9,815.1 C 16.5,814.7 15.3,814.3 14.4,813.8 13.8,813.4 13.3,813 12.9,812.7 12.3,812.1 11.9,811.4 11.8,810.7 12.5,791.9 13.1,780.2 13.5,775.6 L 14.3,767.8 C 13.3,765.5 12.7,763.8 12.5,763.2 12.1,762.4 11.6,760.8 11.3,758.3 10.9,755.9 10.6,754.2 10.6,753.2 L 10.6,752.5 C 10.4,752.3 10.1,752.1 9.9,751.8 9,750.9 8.4,750 8.1,749.1 5.1,732.2 3.3,708.1 2.6,676.7 2.6,673.8 2.7,671 3,668.4 3.1,668.1 3.1,667.8 3.2,667.4 3.3,666.9 3.4,666.4 3.5,665.9 3.5,665.8 3.5,665.8 3.5,665.7 6,652.5 13.8,643 26.9,637.4 29.8,636.1 33,635.1 36.4,634.2 44.1,632.1 52.6,631.2 61.9,631.3 z M 61.3,644.3 C 59.7,644.3 58.1,644.3 56.4,644.3 55.2,644.3 54.1,644.4 52.9,644.4 52.9,644.4 52.8,644.4 52.8,644.4 48.3,644.6 44.1,645.2 40.5,646.1 40.8,646.1 41.2,646.2 41.6,646.3 L 41.8,646.4 C 45,647.5 48,651.4 50.6,658.1 53.3,664.8 55,671.9 55.7,679.5 56.1,685.4 57.1,694.4 58.4,706.6 59.3,714.7 60.1,721.1 60.9,726.2 60.9,726.2 61,726.2 61,726.2 L 61.7,731.1 62,733.8 C 62.3,728.3 62.6,719.2 62.8,706.6 63.1,694.3 63.1,685.4 63,679.7 62.9,672.1 63.9,664.8 65.9,657.9 68.4,649.7 71.7,645.5 75.8,645.5 76,645.5 76.2,645.5 76.4,645.5 72.1,644.8 67.1,644.4 61.3,644.3 z M 93.9,654.2 C 94.9,655.6 95.5,657.2 96,659 96,659 96.1,659.1 96.1,659.1 96.2,659.6 96.3,660 96.4,660.5 97,665 96.5,668.6 94.5,671.4 94.5,671.4 94.5,671.4 94.5,671.4 94.3,671.6 94.2,671.9 94,672.1 93.1,673.1 91.9,674 90.6,674.6 90.6,674.6 90.6,674.7 90.5,674.7 90.2,674.8 89.8,675 89.5,675.1 89.5,675.1 89.4,675.1 89.4,675.2 89.2,675.2 89,675.3 88.7,675.4 88.1,675.6 87.5,675.7 86.8,675.8 86.3,675.9 85.8,675.9 85.3,676 82.1,676.1 79.7,675.1 78,673.1 76.5,671.3 75.9,669.1 76.1,666.6 76.1,666.4 76.2,666.2 76.2,666 76.3,666 76.3,665.9 76.3,665.8 76.6,664.8 77.2,664.2 78.2,663.9 78.2,663.8 78.3,663.8 78.4,663.8 78.5,663.8 78.5,663.8 78.5,663.7 78.6,663.7 78.6,663.7 78.7,663.7 78.8,663.7 79,663.7 79.1,663.7 79.1,663.7 79.1,663.7 79.1,663.7 79.9,663.6 80.7,663.7 81.5,664.1 82.7,664.5 83.7,665.4 84.3,666.6 84.6,667.3 84.8,667.7 85.2,667.9 85.1,667.9 85.1,667.8 85.1,667.8 85.9,668.2 86.7,667.9 87.5,666.8 88,665.9 88.3,665 88.5,664 88.5,663.5 88.5,662.9 88.5,662.4 88.5,662.1 88.4,661.8 88.4,661.5 88,659.7 86.7,658.5 84.3,657.9 81.3,657.3 78.7,658.4 76.3,661.3 76.3,661.3 76.4,661.2 76.4,661.2 75.6,662.2 74.8,663.4 74.1,664.9 71.9,669.6 70.8,679.6 70.8,695.2 70.8,702.9 71.1,710.2 71.5,717 71.4,718.8 71.4,722.1 71.5,726.8 L 71.5,726.8 71.5,730.4 71.7,736.9 71.7,738.3 C 71.8,740.3 71.8,742.2 71.9,744.4 74.5,744.3 77.1,744.2 79.5,744.1 86.7,743.8 92.9,743.8 97.8,743.9 98.5,744 99.2,744 99.9,744 L 101.5,741.1 C 102.1,734.2 102.7,726.2 103.2,717.1 103.9,698.8 103.6,684.3 102.1,673.4 100.9,665.2 98.2,658.8 93.9,654.2 z M 34.5,658.7 C 34,658.7 33.6,658.7 33.1,658.8 32.9,658.8 32.8,658.8 32.6,658.9 30.5,659.5 29.2,660.5 28.5,662 L 28.3,662.2 C 28.3,662.1 28.3,661.9 28.4,661.8 28.2,662.4 28.1,663 28.1,663.7 28.1,666 28.8,667.6 30.2,668.7 30.9,669.3 31.5,669.4 32,669.2 32,669.2 31.9,669.2 31.9,669.2 32.3,669.1 32.7,668.6 33.1,667.8 33.3,667.1 33.6,666.5 34.1,666.1 34.8,665.3 35.8,664.8 37.2,664.6 39.3,664.2 40.7,665.1 41.2,667.3 41.8,669.8 41.4,672 40.1,673.9 38.5,676.1 36.1,677.2 32.9,677.3 29.1,677.3 25.9,676.1 23.6,673.7 20.7,671 19.5,667.2 20,662.2 20,661.6 20.1,661 20.2,660.5 20.2,660.4 20.2,660.4 20.2,660.3 20.3,659.9 20.3,659.6 20.4,659.2 20,659.9 19.6,660.5 19.3,661.2 15.9,667.7 14.2,679.8 14.2,697.4 14.1,708.8 15.1,721.2 17.1,734.7 17.2,734.7 17.2,734.7 17.3,734.7 L 17.8,738.6 19.6,749.3 C 20.1,749.2 20.5,749.1 20.9,749.1 21.9,748.9 23,748.7 24.1,748.5 25.2,748.4 26.4,748.2 27.6,748 29.6,747.8 31.7,747.5 34,747.2 34.4,747.2 34.8,747.1 35.3,747.1 L 35.3,747.1 C 39.3,746.7 43.7,746.2 48.4,745.9 50.1,745.7 51.6,745.6 53.3,745.5 53.2,744 53.1,742.8 53,741.4 L 52.8,739.7 C 52.5,734.9 52.1,730.8 51.8,727.2 51.8,727.2 51.8,727.1 51.8,727.1 51.6,724.9 51.4,723 51.2,721.3 51.1,719.6 50.9,718.4 50.8,717.5 50.5,710.7 50.1,703.4 49.4,695.7 48.1,682.1 46.3,672.7 44.1,667.5 43.9,667.2 43.8,666.8 43.6,666.5 43.4,666.2 43.3,665.9 43.1,665.6 40.6,661.2 37.7,658.9 34.5,658.7 z"
                     style="fill:#484434;fill-opacity:1;fill-rule:evenodd" />
                <path
                     style="fill:#6e554b;fill-opacity:1;fill-rule:evenodd"
                     d="M 43.9,635.3 C 39.24,635.9 35.13,637 31.38,638.3 28.28,639.3 24.37,641.9 19.63,645.8 13.26,651.1 9.278,656.7 7.793,662.4 5.229,672.3 6.226,687.2 10.76,706.9 L 12.94,716.9 C 11.57,710.1 10.45,702.9 9.473,695.3 7.52,680 7.369,670.1 8.919,665.7 11.47,658.8 14.39,653.7 17.47,650.2 21.96,645.1 28.08,641.7 35.74,640.1 45.1,638.4 53.78,637.3 61.8,637 70.73,636.6 77.06,637.2 80.67,638.9 L 88.37,642.3 C 87.25,641.5 85.81,640.5 83.87,639.5 79.87,637.4 75.59,636 70.89,635.5 60.67,634.4 51.69,634.3 43.9,635.3 z"
                     id="path3039"
                     inkscape:connector-curvature="0" />
                <path
                     style="fill:#6e554b;fill-opacity:1;fill-rule:evenodd"
                     d="M 34.4,664.8 C 34.9,664.7 35.1,665.4 35.1,666.5 35.1,668.7 34,670 31.7,670.4 L 30.7,670.6 C 26.8,670.8 24.3,669.5 23.2,666.5 24.3,668.6 26.3,669.5 29.1,669.2 30.8,669.1 32,668.5 32.7,667.2 33.5,665.6 34,664.8 34.1,664.8 34.2,664.8 34.3,664.8 34.4,664.8 z"
                     id="path3033"
                     inkscape:connector-curvature="0" />
                <path
                     style="fill:#6e554b;fill-opacity:1;fill-rule:evenodd"
                     d="M 78.15,664.8 C 78.25,664.8 78.85,665.4 79.85,666.7 81.05,668.1 82.35,668.7 83.85,668.6 L 87.35,668.4 85.85,669.6 C 84.55,670.2 83.15,670 81.55,669.2 77.75,667.2 76.55,665.7 78.15,664.8 z"
                     id="path3031"
                     inkscape:connector-curvature="0" />
                <g
                     id="g3041"
                     transform="matrix(-0.9992,0.0388,0.0388,0.9992,91.08,0.273)">
                    <path
                         id="path3037"
                         d="M 35.6,647 C 40.8,647 44.5,651.2 46.5,659.5 47.6,664.3 49.1,672.7 50.8,684.9 52,694.1 52.9,701.5 53.5,707.2 53.7,709.5 54,712.2 54.3,715.5 54.6,717.8 54.4,718.8 54,718.7 53.5,718.5 52.6,712.6 51.3,700.9 49.7,687.4 48.6,679.6 48.2,677.6 47.1,671.5 46.1,666.8 45.1,663.6 43.5,657.8 41.7,654.2 39.5,652.7 37.2,651 34.8,650.4 32,650.7 29.8,650.9 27.9,651.6 26.4,652.7 L 24.2,654.4 C 24.7,653.2 25.5,651.9 26.6,650.5 28.9,648 31.9,646.8 35.6,647 z"
                         style="fill:#6e554b;fill-opacity:1;fill-rule:evenodd"
                         inkscape:connector-curvature="0" />
                    <path
                         id="path3035"
                         d="M 79.35,650.1 C 80.05,650.2 80.75,650.3 81.45,650.4 84.05,650.9 86.25,652 88.25,653.6 89.25,654.4 89.95,655.2 90.45,656.1 L 91.15,658 C 91.55,660.9 91.35,663 90.65,664.5 90.75,663.1 90.55,661.6 90.05,659.9 89.35,656.5 87.55,654.2 84.85,652.9 82.25,651.7 79.55,651.4 76.85,652.2 75.45,652.6 74.15,653.1 72.75,653.8 71.35,653.8 71.75,653 73.95,651.6 75.55,650.5 77.35,650 79.35,650.1 z"
                         style="fill:#6e554b;fill-opacity:1;fill-rule:evenodd"
                         inkscape:connector-curvature="0" />
                    <path
                         id="path3029"
                         d="M 66.95,666.7 65.25,708.4 C 65.25,709.8 65.35,712.3 65.65,715.9 65.85,717.3 65.65,718 65.05,717.7 64.35,717.3 64.05,708.6 64.45,691.9 64.75,675 65.65,666.6 66.95,666.7 z"
                         style="fill:#6e554b;fill-opacity:1;fill-rule:evenodd"
                         inkscape:connector-curvature="0" />
                </g>
                <path
                     style="fill:#6e554b;fill-opacity:1;fill-rule:evenodd"
                     d="M 7.6,671.5 7.7,688.3 C 7.8,700.6 8.1,709.3 8.4,714.5 L 9.3,726.9 8.6,727.1 C 8,726.3 7.3,723.5 6.5,718.8 5.6,713.2 5.3,704.6 5.5,692.9 5.8,681.2 6.4,674.1 7.6,671.5 z"
                     id="path3027"
                     inkscape:connector-curvature="0" />
                <path
                     style="fill:#6e554b;fill-opacity:1;fill-rule:evenodd"
                     d="M 44.43,782.9 C 44.69,787.2 45.36,790 46.34,791.4 L 46.79,790.9 46.66,790.7 46.43,790.5 C 51.21,793.2 56.02,794.5 60.76,794.4 L 66.6,794.4 C 67.92,794.4 69.59,794.1 71.63,793.5 L 73.09,793.1 88.4,791.9 C 95.19,791.4 106.4,790.2 121.7,788.2 L 119.7,788.3 C 126.1,787.1 131.3,785.8 135.3,784.3 122.5,786.6 111,788.1 100.9,788.7 L 81.51,789.6 82.07,789.8 C 72.95,789.7 64.55,788.7 56.96,787 L 58.56,786.9 C 55.81,786.6 52.69,785.9 49.21,784.8 L 44.43,782.9 z"
                     id="path3025"
                     inkscape:connector-curvature="0" />
                <path
                     style="fill:#6e554b;fill-opacity:1;fill-rule:evenodd"
                     d="M 140.8,806.2 C 140.8,806.3 140.8,806.9 140.7,808.1 140.6,810.8 140.7,812.9 141,814.6 141.6,817.7 142.9,823 144.9,830.6 145.2,832.5 144.5,833.9 142.9,834.7 143.5,834.8 144,834.8 144.4,834.8 145.3,835.1 145.6,835.3 145.3,835.5 145.2,835.6 144.4,835.8 142.9,836 L 138.5,836.2 140,833.8 C 141,832.2 141.5,830.9 141.5,829.7 140.8,826.4 140.1,823.4 139.7,820.4 138.8,814.4 139.1,809.7 140.7,806.3 140.7,806.2 140.8,806.2 140.8,806.2 z"
                     id="path3023"
                     inkscape:connector-curvature="0" />
                <path
                     style="fill:#6e554b;fill-opacity:1;fill-rule:evenodd"
                     d="M 56.4,812.8 57,834.2 C 57,837.1 56.8,839.9 56.4,842.5 56.4,843.4 56.9,844.5 57.95,845.6 55.1,846.5 53.7,845.9 54,843.9 L 56.4,812.8 z"
                     id="path8183"
                     inkscape:connector-curvature="0" />
            </g>
            <g
                 id="g8185"
                 transform="matrix(-0.8902,0,0,0.8902,362.6,211.4)">
                <path
                     style="fill:#c5795a;fill-rule:evenodd"
                     d="M 382,610.1 C 380.2,613.7 377.6,617.5 374.2,621.5 371.7,624.5 367.6,628 362,631.8 356.3,635.7 351.7,638.2 348,639.3 343.8,640.7 335.5,641.6 323.2,642.2 309.5,642.9 296.6,642.7 284.6,641.7 273.6,640.7 262.8,638.4 252.2,634.9 244.5,632.3 239.8,630.2 238,628.8 237.2,628.2 236.7,626.1 236.6,622.5 236.5,619.3 236.6,617.1 236.9,615.8 237.7,613.1 241.1,609.6 247.1,605.3 251.8,601.9 263.9,595.3 283.5,585.4 292.6,583.6 313.7,583.9 346.8,586.2 360.8,587.3 370.4,588.9 375.6,591 381.5,593.6 384.3,597.9 384.2,603.8 384.2,605.1 383.5,607.2 382,610.1 z"
                     id="path8187"
                     inkscape:connector-curvature="0" />
                <path
                     inkscape:connector-curvature="0"
                     id="path8189"
                     d="M 326.1,584.9 322,586.8 C 316.7,589 307.7,596 295.1,607.8 288.8,613.7 282.5,619.8 276.2,626 275.3,626.8 274.7,627.6 274.4,628.3 274.3,628.8 274.1,629.7 274,631 273.7,632.7 273.5,635.7 273.5,640.2 267.4,639 260.7,637.4 253.5,635.2 252.7,633.1 252.4,630.1 252.6,626.2 252.8,622.9 253.2,620.8 253.6,619.9 254.5,618.7 257.6,615.8 263,611.2 266.2,608.3 279.2,599.3 302.1,584.2 306.5,584.2 314.5,584.4 326.1,584.9 z"
                     style="fill:#d8ab62;fill-rule:evenodd" />
                <path
                     inkscape:connector-curvature="0"
                     id="path8191"
                     d="M 371.7,589.6 370.5,590.5 C 367,592.6 358.8,599.7 346,611.8 L 327.6,629.3 327.1,631 325.6,642.2 C 316.7,642.5 308.1,642.6 299.7,642.5 L 299.4,639.3 C 299.1,636.8 299.3,634.2 299.9,631.5 L 300.7,628.3 C 306.3,622.1 313.2,615.6 321.5,608.5 L 347.5,586.2 C 359,587.1 367,588.3 371.7,589.6 z"
                     style="fill:#d8ab62;fill-rule:evenodd" />
            </g>
        </g>
        <g
             transform="translate(-37.66,208.9)"
             id="g6432">
            <g
                 id="g6423">
                <path
                     style="fill:#484434;fill-opacity:1;fill-rule:evenodd"
                     d="M 512.7,428.5 C 507.5,428.6 502.1,429 496.4,429.8 485.9,431.3 477.6,435.3 471.4,441.9 466.3,447.3 463,454.3 461.4,462.9 460,470.4 459.7,492.7 460.4,529.6 L 460.4,529.6 C 460.5,532.6 460.5,535.5 460.6,538.7 L 460.7,540 C 461,540.6 461.2,541.2 461.6,541.7 L 461.7,542.2 C 462,542.7 462.4,543.1 462.9,543.5 459.9,545 457.2,546.5 454.7,547.8 452.2,549.1 449.8,550.3 447.7,551.4 438.8,556.2 432.9,559.7 430.1,561.8 424.1,566.4 420.9,569.9 420.4,572.3 420.1,573.7 419.9,575.9 419.9,579 420,582.6 420.5,584.7 421.3,585.3 421.9,585.8 422.9,586.3 424.2,586.9 425,587.3 426.1,587.9 427.2,588.4 427.5,588.5 427.7,588.6 428,588.7 428.2,588.7 428.4,588.8 428.6,588.9 L 428.1,592.2 428.1,592.4 423.5,622.7 C 422.9,626.3 422.3,629.4 421.6,631.9 L 422.4,632.5 C 422.3,632.5 422.3,632.5 422.3,632.5 L 423.1,633.4 C 425.7,635.5 428.5,636.4 431.5,635.9 435.4,635.3 437.6,634 437.9,632.2 439,613.9 439.5,602.5 439.5,598 L 439.5,592.8 C 445.7,594.7 452.1,596.2 458.6,597.1 459.1,597.2 459.6,597.2 460.2,597.3 L 459.7,604.1 459.7,604.1 459.7,604.8 461.4,606.2 C 462.5,606.8 463.5,607.3 464.6,607.7 464.6,607.7 464.7,607.7 464.7,607.7 464.8,607.8 465,607.8 465.1,607.9 466.1,608.2 467.1,608.3 468.1,608.2 468.8,608.2 469.4,608.1 470.1,607.9 474.1,607 476.1,605.6 476.4,603.6 476.3,601.8 476.3,600.4 476.2,598.8 481.8,599 487.5,599.1 493.5,599 496.8,599 500,598.9 503.4,598.7 504.9,598.6 506.3,598.5 507.6,598.4 509.5,598.3 511.2,598.2 512.9,598 L 509.9,643.8 C 509.9,643.8 509.9,643.8 509.9,643.8 L 509.9,644.5 512.8,646.7 C 514.7,647.7 516.5,648.1 518.4,648 519,648 519.7,647.9 520.3,647.7 524.2,646.7 526.3,645.2 526.6,643.3 525.9,624.5 525.3,612.9 524.9,608.2 L 524,599 C 523.8,598.2 523.6,597.4 523.3,596.7 523.3,596.7 523.4,596.7 523.4,596.7 524.1,596.6 524.8,596.4 525.5,596.3 526.1,596.1 526.7,596 527.2,595.8 529,595.3 531,594.3 533.2,593 535.5,591.8 538,590.1 540.7,588.1 542.1,587.2 543.3,586.3 544.5,585.4 545.1,585 545.6,584.5 546.2,584.1 546.8,583.5 547.4,583 548,582.5 L 547.7,589.2 547.6,590 547.6,590 547.1,599.5 C 546.9,603.2 546.6,606.3 546.1,608.9 L 546.1,608.9 546.1,609.1 549.2,611.3 C 551.1,612.3 552.9,612.8 554.7,612.6 555,612.6 555.3,612.6 555.6,612.5 555.9,612.5 556.2,612.4 556.5,612.3 L 556.7,612.3 C 558.1,611.9 559.3,611.5 560.2,611 560.8,610.6 561.3,610.2 561.7,609.9 562.3,609.3 562.7,608.6 562.8,607.9 562.1,589.1 561.5,577.4 561.1,572.8 L 560.3,565 C 561.3,562.7 561.9,561 562.1,560.4 562.5,559.6 563,558 563.3,555.5 563.7,553.1 564,551.4 564,550.4 L 564,549.7 C 564.2,549.5 564.5,549.3 564.7,549 565.6,548.1 566.2,547.2 566.5,546.3 569.5,529.4 571.3,505.3 572,473.9 572,471 571.9,468.2 571.6,465.6 571.5,465.3 571.5,465 571.4,464.6 571.3,464.1 571.2,463.6 571.1,463.1 571.1,463 571.1,463 571.1,462.9 568.6,449.7 560.8,440.2 547.7,434.6 544.8,433.3 541.6,432.3 538.2,431.4 530.5,429.3 522,428.4 512.7,428.5 z M 513.3,441.5 C 514.9,441.5 516.5,441.5 518.2,441.5 519.4,441.5 520.5,441.6 521.7,441.6 521.7,441.6 521.8,441.6 521.8,441.6 526.3,441.8 530.5,442.4 534.1,443.3 533.8,443.3 533.4,443.4 533,443.5 L 532.8,443.6 C 529.6,444.7 526.6,448.6 524,455.3 521.3,462 519.6,469.1 518.9,476.7 518.5,482.6 517.5,491.6 516.2,503.8 515.3,511.9 514.5,518.3 513.7,523.4 513.7,523.4 513.6,523.4 513.6,523.4 L 512.9,528.3 512.6,531 C 512.3,525.5 512,516.4 511.8,503.8 511.5,491.5 511.5,482.6 511.6,476.9 511.7,469.3 510.7,462 508.7,455.1 506.2,446.9 502.9,442.7 498.8,442.7 498.6,442.7 498.4,442.7 498.2,442.7 502.5,442 507.5,441.6 513.3,441.5 z M 480.7,451.4 C 479.7,452.8 479.1,454.4 478.6,456.2 478.6,456.2 478.5,456.3 478.5,456.3 478.4,456.8 478.3,457.2 478.2,457.7 477.6,462.2 478.1,465.8 480.1,468.6 480.1,468.6 480.1,468.6 480.1,468.6 480.3,468.8 480.4,469.1 480.6,469.3 481.5,470.3 482.7,471.2 484,471.8 484,471.8 484,471.9 484.1,471.9 484.4,472 484.8,472.2 485.1,472.3 485.1,472.3 485.2,472.3 485.2,472.4 485.4,472.4 485.6,472.5 485.9,472.6 486.5,472.8 487.1,472.9 487.8,473 488.3,473.1 488.8,473.1 489.3,473.2 492.5,473.3 494.9,472.3 496.6,470.3 498.1,468.5 498.7,466.3 498.5,463.8 498.5,463.6 498.4,463.4 498.4,463.2 498.3,463.2 498.3,463.1 498.3,463 498,462 497.4,461.4 496.4,461.1 496.4,461 496.3,461 496.2,461 496.1,461 496.1,461 496.1,460.9 496,460.9 496,460.9 495.9,460.9 495.8,460.9 495.6,460.9 495.5,460.9 495.5,460.9 495.5,460.9 495.5,460.9 494.7,460.8 493.9,460.9 493.1,461.3 491.9,461.7 490.9,462.6 490.3,463.8 490,464.5 489.8,464.9 489.4,465.1 489.5,465.1 489.5,465 489.5,465 488.7,465.4 487.9,465.1 487.1,464 486.6,463.1 486.3,462.2 486.1,461.2 486.1,460.7 486.1,460.1 486.1,459.6 486.1,459.3 486.2,459 486.2,458.7 486.6,456.9 487.9,455.7 490.3,455.1 493.3,454.5 495.9,455.6 498.3,458.5 498.3,458.5 498.2,458.4 498.2,458.4 499,459.4 499.8,460.6 500.5,462.1 502.7,466.8 503.8,476.8 503.8,492.4 503.8,500.1 503.5,507.4 503.1,514.2 503.2,516 503.2,519.3 503.1,524 L 503.1,524 503.1,527.6 502.9,534.1 502.9,535.5 C 502.8,537.5 502.8,539.4 502.7,541.6 500.1,541.5 497.5,541.4 495.1,541.3 487.9,541 481.7,541 476.8,541.1 476.1,541.2 475.4,541.2 474.7,541.2 L 473.1,538.3 C 472.5,531.4 471.9,523.4 471.4,514.3 470.7,496 471,481.5 472.5,470.6 473.7,462.4 476.4,456 480.7,451.4 z M 540.1,455.9 C 540.6,455.9 541,455.9 541.5,456 541.7,456 541.8,456 542,456.1 544.1,456.7 545.4,457.7 546.1,459.2 L 546.3,459.4 C 546.3,459.3 546.3,459.1 546.2,459 546.4,459.6 546.5,460.2 546.5,460.9 546.5,463.2 545.8,464.8 544.4,465.9 543.7,466.5 543.1,466.6 542.6,466.4 542.6,466.4 542.7,466.4 542.7,466.4 542.3,466.3 541.9,465.8 541.5,465 541.3,464.3 541,463.7 540.5,463.3 539.8,462.5 538.8,462 537.4,461.8 535.3,461.4 533.9,462.3 533.4,464.5 532.8,467 533.2,469.2 534.5,471.1 536.1,473.3 538.5,474.4 541.7,474.5 545.5,474.5 548.7,473.3 551,470.9 553.9,468.2 555.1,464.4 554.6,459.4 554.6,458.8 554.5,458.2 554.4,457.7 554.4,457.6 554.4,457.6 554.4,457.5 554.3,457.1 554.3,456.8 554.2,456.4 554.6,457.1 555,457.7 555.3,458.4 558.7,464.9 560.4,477 560.4,494.6 560.5,506 559.5,518.4 557.5,531.9 557.4,531.9 557.4,531.9 557.3,531.9 L 556.8,535.8 555,546.5 C 554.5,546.4 554.1,546.3 553.7,546.3 552.7,546.1 551.6,545.9 550.5,545.7 549.4,545.6 548.2,545.4 547,545.2 545,545 542.9,544.7 540.6,544.4 540.2,544.4 539.8,544.3 539.3,544.3 L 539.3,544.3 C 535.3,543.9 530.9,543.4 526.2,543.1 524.5,542.9 523,542.8 521.3,542.7 521.4,541.2 521.5,540 521.6,538.6 L 521.8,536.9 C 522.1,532.1 522.5,528 522.8,524.4 522.8,524.4 522.8,524.3 522.8,524.3 523,522.1 523.2,520.2 523.4,518.5 523.5,516.8 523.7,515.6 523.8,514.7 524.1,507.9 524.5,500.6 525.2,492.9 526.5,479.3 528.3,469.9 530.5,464.7 530.7,464.4 530.8,464 531,463.7 531.2,463.4 531.3,463.1 531.5,462.8 534,458.4 536.9,456.1 540.1,455.9 z"
                     id="path7371-5"
                     inkscape:connector-curvature="0" />
                <path
                     style="fill:#6e554b;fill-opacity:1;fill-rule:evenodd"
                     d="M 509.6,428.2 C 504.9,428.2 500.7,428.7 496.8,429.6 493.6,430.2 489.4,432.2 484.2,435.5 477.2,440 472.6,445 470.4,450.5 466.6,460 465.7,474.9 467.7,495 L 468.6,505.2 C 468.1,498.3 467.9,491 467.9,483.3 467.9,467.9 469,458.1 471.1,453.9 474.5,447.4 478,442.7 481.5,439.6 486.6,435.1 493.1,432.5 500.9,431.9 510.4,431.4 519.1,431.4 527.1,432.1 536,432.9 542.2,434.3 545.6,436.4 L 552.8,440.8 C 551.8,439.8 550.5,438.6 548.7,437.4 545,434.8 540.9,432.9 536.3,431.8 526.3,429.4 517.4,428.2 509.6,428.2 z M 539,444.2 C 533.8,444.2 530.1,448.4 528.1,456.7 527,461.5 525.5,469.9 523.8,482.1 522.6,491.3 521.7,498.7 521.1,504.4 520.9,506.7 520.6,509.4 520.3,512.7 520,515 520.2,516 520.6,515.9 521.1,515.7 522,509.8 523.3,498.1 524.9,484.6 526,476.8 526.4,474.8 527.5,468.7 528.5,464 529.5,460.8 531.1,455 532.9,451.4 535.1,449.9 537.4,448.2 539.8,447.6 542.6,447.9 544.8,448.1 546.7,448.8 548.2,449.9 L 550.4,451.6 C 549.9,450.4 549.1,449.1 548,447.7 545.7,445.2 542.7,444 539,444.2 z M 495.3,447.3 C 494.6,447.4 493.9,447.5 493.2,447.6 490.6,448.1 488.4,449.2 486.4,450.8 485.4,451.6 484.7,452.4 484.2,453.3 L 483.5,455.2 C 483.1,458.1 483.3,460.2 484,461.7 483.9,460.3 484.1,458.8 484.6,457.1 485.3,453.7 487.1,451.4 489.8,450.1 492.4,448.9 495.1,448.6 497.8,449.4 499.2,449.8 500.5,450.3 501.9,451 503.3,451 502.9,450.2 500.7,448.8 499.1,447.7 497.3,447.2 495.3,447.3 z M 540.2,462 C 539.7,461.9 539.5,462.6 539.5,463.7 539.5,465.9 540.6,467.2 542.9,467.6 L 543.9,467.8 C 547.8,468 550.3,466.7 551.4,463.7 550.3,465.8 548.3,466.7 545.5,466.4 543.8,466.3 542.6,465.7 541.9,464.4 541.1,462.8 540.6,462 540.5,462 540.4,462 540.3,462 540.2,462 z M 496.5,462 C 496.4,462 495.8,462.6 494.8,463.9 493.6,465.3 492.3,465.9 490.8,465.8 L 487.3,465.6 488.8,466.8 C 490.1,467.4 491.5,467.2 493.1,466.4 496.9,464.4 498.1,462.9 496.5,462 z M 507.7,463.9 509.4,505.6 C 509.4,507 509.3,509.5 509,513.1 508.8,514.5 509,515.2 509.6,514.9 510.3,514.5 510.6,505.8 510.2,489.1 509.9,472.2 509,463.8 507.7,463.9 z M 567,468.7 566.9,485.5 C 566.8,497.8 566.5,506.5 566.2,511.7 L 565.3,524.1 566,524.3 C 566.6,523.5 567.3,520.7 568.1,516 569,510.4 569.3,501.8 569.1,490.1 568.8,478.4 568.2,471.3 567,468.7 z M 420.7,571.3 C 420.4,575.6 420.7,578.5 421.5,580 L 422,579.6 421.9,579.4 421.7,579.1 C 426.2,582.4 430.8,584.3 435.5,584.9 L 441.3,585.6 C 442.6,585.8 444.3,585.7 446.4,585.4 L 447.9,585.2 463.2,585.9 C 470,586.3 481.2,586.6 496.7,586.6 L 494.7,586.4 C 501.2,586 506.5,585.4 510.7,584.5 497.7,585.1 486.1,585.1 476,584.4 L 456.7,582.8 457.2,583 C 448.2,581.8 440,579.7 432.7,577 L 434.3,577.1 C 431.6,576.5 428.6,575.4 425.3,573.8 L 420.7,571.3 z M 431.9,603.4 C 431.9,603.5 431.9,604.1 432,605.3 432.1,608 432,610.1 431.7,611.8 431.1,614.9 429.8,620.2 427.8,627.8 427.5,629.7 428.2,631.1 429.8,631.9 429.2,632 428.7,632 428.3,632 427.4,632.3 427.1,632.5 427.4,632.7 427.5,632.8 428.3,633 429.8,633.2 L 434.2,633.4 432.7,631 C 431.7,629.4 431.2,628.1 431.2,626.9 431.9,623.6 432.6,620.6 433,617.6 433.9,611.6 433.6,606.9 432,603.5 432,603.4 431.9,603.4 431.9,603.4 z M 516.2,610 515.6,631.4 C 515.6,634.3 515.8,637.1 516.2,639.7 516.2,640.6 515.7,641.7 514.7,642.8 517.5,643.7 518.9,643.1 518.6,641.1 L 516.2,610 z"
                     id="path7988"
                     inkscape:connector-curvature="0" />
            </g>
            <g
                 transform="matrix(0.8902,0,0,0.8902,212,8.565)"
                 id="g6427">
                <path
                     inkscape:connector-curvature="0"
                     id="path5863"
                     d="M 382,610.1 C 380.2,613.7 377.6,617.5 374.2,621.5 371.7,624.5 367.6,628 362,631.8 356.3,635.7 351.7,638.2 348,639.3 343.8,640.7 335.5,641.6 323.2,642.2 309.5,642.9 296.6,642.7 284.6,641.7 273.6,640.7 262.8,638.4 252.2,634.9 244.5,632.3 239.8,630.2 238,628.8 237.2,628.2 236.7,626.1 236.6,622.5 236.5,619.3 236.6,617.1 236.9,615.8 237.7,613.1 241.1,609.6 247.1,605.3 251.8,601.9 263.9,595.3 283.5,585.4 292.6,583.6 313.7,583.9 346.8,586.2 360.8,587.3 370.4,588.9 375.6,591 381.5,593.6 384.3,597.9 384.2,603.8 384.2,605.1 383.5,607.2 382,610.1 z"
                     style="fill:#c5795a;fill-rule:evenodd" />
                <path
                     style="fill:#d8ab62;fill-rule:evenodd"
                     d="M 326.1,584.9 322,586.8 C 316.7,589 307.7,596 295.1,607.8 288.8,613.7 282.5,619.8 276.2,626 275.3,626.8 274.7,627.6 274.4,628.3 274.3,628.8 274.1,629.7 274,631 273.7,632.7 273.5,635.7 273.5,640.2 267.4,639 260.7,637.4 253.5,635.2 252.7,633.1 252.4,630.1 252.6,626.2 252.8,622.9 253.2,620.8 253.6,619.9 254.5,618.7 257.6,615.8 263,611.2 266.2,608.3 279.2,599.3 302.1,584.2 306.5,584.2 314.5,584.4 326.1,584.9 z"
                     id="path5855"
                     inkscape:connector-curvature="0" />
                <path
                     style="fill:#d8ab62;fill-rule:evenodd"
                     d="M 371.7,589.6 370.5,590.5 C 367,592.6 358.8,599.7 346,611.8 L 327.6,629.3 327.1,631 325.6,642.2 C 316.7,642.5 308.1,642.6 299.7,642.5 L 299.4,639.3 C 299.1,636.8 299.3,634.2 299.9,631.5 L 300.7,628.3 C 306.3,622.1 313.2,615.6 321.5,608.5 L 347.5,586.2 C 359,587.1 367,588.3 371.7,589.6 z"
                     id="path5857"
                     inkscape:connector-curvature="0" />
            </g>
        </g>
        <g
             id="g8771">
            <path
                 inkscape:connector-curvature="0"
                 id="rect8770-6"
                 d="M 273.2,683.6 C 232.8,683.6 193.2,687.9 167.8,696.4 154.8,700.8 147.5,705.9 146.2,711.3 145.6,714 146.6,731.8 147.5,734.2 149,738.4 155.6,743.2 164.7,746.8 185.8,755.1 217,760.3 257.6,762.3 L 263.7,762.6 263.7,770.4 C 263.7,777.8 263.7,778.4 262.6,780.5 261,783.8 259.2,785.6 252.6,790.9 242.5,798.9 237.4,804.6 235,809.8 233.6,813.2 231.8,820.3 231.5,824.4 231.2,828 231.3,828.2 232.4,829.3 233.1,829.9 234,830.5 234.6,830.5 235.7,830.5 235.7,830.4 234.5,833.2 231.9,839.2 229.5,849.4 229.5,854.3 229.5,856.4 229.7,856.8 230.8,858 233,860.1 236.8,860.3 245,858.5 246.7,858.1 248.2,857.8 248.3,857.7 248.5,857.5 248.8,855.1 249.2,852.1 251.3,836.1 253.9,831.6 269.4,816.7 275.4,810.9 277.8,805.6 278.3,796.7 278.4,794.3 278.7,791.2 278.8,789.8 L 279.1,787.3 280,790.6 C 281.3,795.8 283.3,799.2 287.6,803.5 291.2,807.1 293.7,808.8 303.4,814.7 308.7,817.9 312.8,821 314.1,822.7 315.7,824.8 317.6,832.3 318.7,842 L 319.1,845 321.6,845.6 C 330.2,847.6 334,847.5 336.6,845.2 337.9,844.1 338.2,843.5 338.2,841.9 338.2,837 335.5,825.9 333.1,820.9 330.4,815.5 322.5,808.9 306.1,798.8 296.7,793 294.4,791.2 292,786.6 L 290.6,783.8 290.6,773.2 290.6,762.5 296.5,762.5 C 303.7,762.5 317.2,761.8 328,760.9 367,757.5 397,749.8 407,740.5 411.1,736.8 411.3,736.2 411.3,724.4 411.3,713.2 411.2,712.5 408.2,709.3 403.1,703.5 391.3,698.5 372.9,693.8 345.1,687 308.9,683.6 273.2,683.6 z"
                 style="fill:#453e32;fill-opacity:1;stroke:none" />
            <path
                 transform="matrix(1.002,0,0,0.8305,-348,454)"
                 d="M 755,316 C 755,335.9 696.8,352 625,352 553.2,352 495,335.9 495,316 495,296.1 553.2,280 625,280 696.8,280 755,296.1 755,316 z"
                 sodipodi:ry="36"
                 sodipodi:rx="130"
                 sodipodi:cy="316"
                 sodipodi:cx="625"
                 id="path6978-7"
                 style="opacity:0.06;fill:#ebe8ea;fill-opacity:1;stroke:none"
                 sodipodi:type="arc" />
            <path
                 inkscape:connector-curvature="0"
                 id="use8755"
                 d="M 284.4,702.5 C 284.5,704 284.5,705.6 284.5,707.1 281.5,709.7 278.2,710.5 274.4,709.5 272.5,708.9 270.9,708.1 269.7,707.1 L 269.7,702.8 C 266.5,703.9 264.5,705.7 264.5,707.7 264.5,711.1 270.3,713.8 277.5,713.8 284.7,713.8 290.6,711.1 290.6,707.7 290.6,705.5 288.1,703.6 284.4,702.5 z M 146.1,715.7 C 146,716 146,716.4 146,716.6 146,734.3 204.9,748.6 277.5,748.6 350.2,748.6 409.1,734.3 409.1,716.6 409.1,716.4 409.1,716 409,715.7 407.1,732.9 348.9,746.7 277.5,746.7 206.2,746.7 148.1,732.9 146.1,715.7 z"
                 style="fill:#6e554b;fill-opacity:1;stroke:none" />
        </g>
        <path
             style="fill:#474a44;fill-rule:evenodd"
             d="M 278.9,423.6 C 276.6,423.8 274.6,426.3 272.9,431.2 271.8,433.9 271.1,436.7 270.6,439.5 271.4,441.8 273.9,443.1 277.9,443.4 280.1,443.7 282.3,443.1 284.6,441.9 L 285.3,441.4 C 285.8,441.1 286.3,440.9 286.8,440.5 L 287.3,440 C 286.5,437.4 285.6,434.8 284.6,432.2 282.7,427.3 281.2,424.5 280.1,423.9 280,423.8 279.9,423.7 279.8,423.7 279.5,423.6 279.2,423.6 278.9,423.6 z"
             id="path5977"
             inkscape:connector-curvature="0" />
    </g>
</svg>
