<?xml version="1.0" encoding="UTF-8"?>
<!DOCTYPE svg PUBLIC "-//W3C//DTD SVG 1.1//EN" "http://www.w3.org/Graphics/SVG/1.1/DTD/svg11.dtd">
<!-- Creator: CorelDRAW X5 -->
<svg xmlns="http://www.w3.org/2000/svg" xml:space="preserve" width="210mm" height="32.198mm" style="shape-rendering:geometricPrecision; text-rendering:geometricPrecision; image-rendering:optimizeQuality; fill-rule:evenodd; clip-rule:evenodd"
viewBox="0 0 21000 3220"
 xmlns:xlink="http://www.w3.org/1999/xlink">
 <defs>
  <style type="text/css">
   <![CDATA[
    .fil0 {fill:#034EA2;fill-rule:nonzero}
   ]]>
  </style>
 </defs>
 <g id="Layer_x0020_1">
  <metadata id="CorelCorpID_0Corel-Layer"/>
  <path class="fil0" d="M1394 2256c29,73 20,166 6,222 -25,100 -92,202 -292,202 -187,0 -302,-109 -302,-272l0 -291 -805 0 0 231c0,669 526,872 1091,872 543,0 989,-185 1061,-686 37,-259 10,-429 -3,-492 -127,-629 -1266,-816 -1351,-1168 -12,-52 -13,-106 -3,-158 21,-97 87,-202 274,-202 176,0 278,109 278,272l0 186 749 0 0 -211c0,-654 -587,-756 -1011,-756 -534,0 -970,177 -1050,667 -21,134 -25,254 7,404 130,613 1197,791 1352,1179m0 0l0 0 0 0z"/>
  <path class="fil0" d="M3213 101l-557 3001 811 0 411 -2724 17 0 400 2724 807 0 -553 -3002 -1335 1zm4535 0l-370 2295 -18 0 -369 -2295 -1224 0 -66 3001 751 0 18 -2698 17 0 501 2698 762 0 502 -2698 16 0 19 2698 751 0 -66 -3002 -1223 1z"/>
  <path class="fil0" d="M11152 2250c29,73 20,166 6,222 -25,100 -92,202 -292,202 -187,0 -302,-109 -302,-272l0 -291 -805 0 0 231c0,669 526,872 1091,872 543,0 989,-185 1061,-686 37,-259 10,-429 -3,-492 -127,-629 -1266,-816 -1351,-1168 -12,-52 -13,-106 -3,-158 21,-97 87,-202 274,-202 176,0 278,109 278,272l0 186 749 0 0 -211c0,-654 -587,-756 -1011,-756 -534,0 -970,177 -1050,667 -21,134 -25,254 7,405 130,613 1197,791 1352,1179m0 0l0 0 0 0z"/>
  <path class="fil0" d="M13671 2653c209,0 273,-144 288,-217 6,-32 7,-76 7,-115l0 -2220 760 0 0 2151c0,66 -2,132 -7,197 -53,560 -495,742 -1047,742 -552,0 -995,-182 -1048,-742 -2,-30 -8,-142 -7,-197l0 -2152 760 0 0 2220c-1,39 1,83 7,116 14,73 79,217 288,217m3670 -2552l41 2356 -16 0 -691 -2356 -1113 0 0 2970 738 0 -41 -2438 16 0 741 2438 1069 0 0 -2970 -743 0zm2590 2521c217,0 293,-137 307,-218 6,-33 7,-75 7,-113l0 -437 -308 0 0 -437 1063 0 0 805c0,56 -1,97 -11,197 -49,547 -524,742 -1056,742 -532,0 -1006,-195 -1056,-742 -8,-100 -11,-141 -11,-197l0 -1263c0,-54 7,-148 13,-197 67,-562 521,-742 1054,-742 532,0 999,179 1054,741 10,96 7,197 7,197l0 101 -757 0 0 -168c0,0 0,-70 -9,-114 -14,-66 -70,-218 -300,-218 -218,0 -283,144 -299,218 -9,39 -13,93 -13,142l0 1372c0,38 1,80 7,114 14,80 90,218 307,218m0 0l0 0 0 0z"/>
 </g>
</svg>
