<?xml version="1.0"?>
<svg xmlns:rdf="http://www.w3.org/1999/02/22-rdf-syntax-ns#" xmlns="http://www.w3.org/2000/svg" xmlns:cc="http://web.resource.org/cc/" xmlns:dc="http://purl.org/dc/elements/1.1/" xmlns:svg="http://www.w3.org/2000/svg" id="svg1" viewBox="0 0 492.14 449.9" version="1.0" y="0" x="0">
  <g id="g1080" transform="translate(.17699 -.59182)">
    <path id="path2311" d="m94.376 101.33c-2.15 3.22-16.425 37.32-15.768 39.42 0.657 2.09-2.442 5.85 3.687 10.5 6.292 4.77 116.32 41.73 123.18 41.82 6.59 0.09 19.7-2.33 31.17-7.17 11.46-4.84 25.44-11.11 37.62-21.86 12.19-10.75 25.51-27.3 35.48-42.65 9.98-15.35 20.19-35.892 24.37-49.451 4.18-13.558 4.18-22.696 0.72-31.894-3.47-9.198-12.9-17.56-21.5-23.294-8.6-5.733-15.41-9.8547-30.11-11.109-14.69-1.2542-39.95 0.0598-58.05 3.5837-18.1 3.5243-35.24 9.0193-50.53 17.56-15.29 8.541-27.71 20.844-41.21 33.686-13.5 12.841-26.52 28.908-39.781 43.358" fill="#f00" fill-rule="evenodd"/>
    <path id="path4175" d="m185.14 212.04c5.24 10.47 9.29 22.13 15.71 31.42s11.87 16.05 22.81 24.32c10.93 8.28 37.03 28.03 42.82 25.34 5.48-2.54 158.51-62.33 164.46-64.36 5.77-1.97 8.19-20.53 9.12-29.9 0.93-9.38-0.29-17.49-3.55-26.35-3.25-8.87-9.54-17.95-15.96-26.87-6.42-8.91-14.11-18.16-22.55-26.6-8.45-8.45-19.14-17.78-28.13-24.076-9-6.293-20.57-12.839-25.85-13.683-5.28-0.845-1.94 1.351-5.83 8.615-3.88 7.264-11.1 24.794-17.48 34.974-6.38 10.17-13.34 17.78-20.78 26.1s-14.63 16.86-23.86 23.82c-9.24 6.96-22.61 13.47-31.54 17.92s-13.02 6.12-22.04 8.78-21.38 4.78-32.07 7.17" fill="#007fff" fill-rule="evenodd"/>
    <path id="path4797" d="m146.58 76.997c0.01 6.433-5.63 11.65-12.6 11.65-6.96 0-12.6-5.217-12.59-11.65-0.01-6.433 5.63-11.651 12.59-11.651 6.97 0 12.61 5.218 12.6 11.651z" fill="#fff" transform="matrix(2.8164 0 0 2.8164 -41.803 -40.094)"/>
    <path id="path1062" d="m425.76 447.31c-1.56-1.94-10.63-19.12-20.16-38.19-15.07-30.16-34.42-63.14-49.5-84.34-7.35-10.35-24.27-17.08-55.29-22-38.14-6.04-50.85-10.57-72.02-25.68-20.12-14.36-29.01-24.17-40.77-45-7.88-13.96-8.87-14.72-17.31-13.17-5.67 1.05-14.86 7.41-25.14 17.41-17.08 16.62-20.32 17.41-9.91 2.44 12.9-18.58 19.6-24.13 31.38-26.02 6.39-1.03 14.43-3.65 17.86-5.82 3.43-2.18 10.84-3.96 16.47-3.96 26.16 0 69.51-22.51 92.62-48.09 12.85-14.21 33.86-46.38 41.32-63.265 3.49-7.877 7.38-12.566 10.42-12.566 9.87 0 41.12 21.711 60.26 41.861 25.36 26.7 37.44 50.95 37.36 75.02-0.07 21.76-5.37 34.75-15.08 36.95-4.07 0.91-23.98 7.87-44.26 15.45-37.34 13.96-49.5 17.08-39.1 10.01 3.06-2.07 20.72-8.72 39.25-14.77 39.58-12.91 47.64-18.66 52-37.1 2.69-11.38 2.36-15.5-2.19-27.83-11.74-31.84-41.68-65.72-74.78-84.655l-15.75-9.003-11.15 23.088c-14.35 29.7-49.08 69.65-70.14 80.68-10 5.24-53.2 19.85-58.84 19.9-12.65 0.11-13.16 4.33-2.75 22.9 5.52 9.84 13.63 21.19 18.01 25.22 21.37 19.65 56.53 37.65 79.03 40.46 47.56 5.94 54.64 7.99 62.35 18.03 14.45 18.83 34.5 52.96 52.86 90.01 21.4 43.18 18.32 41.75 52.8 24.43 25.72-12.91 17.18-2.97-9.46 11.03-20.72 10.88-25.98 12.02-30.39 6.57zm11.36-16.83c-5.29-6.61-21.19-41.83-19.6-43.42 0.86-0.86 6.71 8.92 12.99 21.75 10.74 21.91 13.17 29.87 6.61 21.67zm-25.54-53.44c-1.85-1.86-3.38-4.83-3.38-6.61 0-4.29-32.95-57.13-41.19-66.06-14.9-16.13-26.4-31.79-26.4-35.96 0-3.44 1.65-2.9 7.3 2.38 6.72 6.29 23.68 29.42 23.68 32.29 0 0.68 4.54 7.19 10.09 14.46 8.67 11.36 36.66 62.88 34.16 62.88-0.48 0-2.4-1.53-4.26-3.38zm-377.9-29.74c-11.54-5.68-33.859-26.36-33.859-31.37 0.00001-1.92 5.3864 0.87 11.97 6.19 15.434 12.48 35.12 24.7 44.227 27.47 6.579 2 6.356 2.19-2.685 2.36-5.422 0.09-14.266-2-19.653-4.65zm8.469-11.84c-2.279-1.44-3.41-3.35-2.514-4.25 0.896-0.89 3.233 0.31 5.192 2.67 4.063 4.89 3.284 5.35-2.678 1.58zm-42.328-26.58c0-1.3 10.525-13.42 23.389-26.94 12.863-13.52 32.31-36.5 43.213-51.06 20.285-27.1 29.156-36.6 29.156-31.23 0 1.65-1.184 3.73-2.632 4.63-1.447 0.89-13.804 16.36-27.46 34.38-27.896 36.81-24.74 33.16-48.213 55.77-9.599 9.24-17.453 15.74-17.453 14.45zm341.62-16.49c-10.85-11.92-17.06-29.44-7.67-21.64 4.94 4.09 16.32 25.08 14.56 26.84-0.62 0.62-3.72-1.72-6.89-5.2zm-50.77-10.81c8.81-5.12 35.86-13.6 35.86-11.23 0 3.12-27.48 14.33-34.88 14.22-5.44-0.08-5.53-0.34-0.98-2.99zm18.63-78.27c-10.14-10.14-14.66-22.86-8.12-22.86 1.55 0 2.82 1.17 2.82 2.6 0 6.14 15.37 20.09 25.46 23.11 12.5 3.75 12.17 8.09-0.61 8.09-6.25 0-11.62-3-19.55-10.94zm44.62 2.07c0-0.56 6.73-10.37 9.69-16.99 5.97-13.34 3.76-21.33-6.57-32.36-10.01-10.69-19.86-13.19-31.99-8.12-25.45 12.56-15.84 4.48-6.63-3.79 7.65-7.13 24.31-7.88 36.38-1.63 16.15 8.35 23.34 34.53 14.19 51.64-2.46 4.6-15.07 14.2-15.07 11.25zm-268.98-31.31c-18.184-34.58-9.941-62.56 31-105.2 23.77-24.76 53.11-45.308 78.43-54.928 34.73-13.2 73.4-16.946 100.49-9.7365 31.43 8.3665 43.32 20.664 45.21 46.732 1.15 15.934 0.31 18.873-13.13 46.134-14.64 29.668-30.84 50.558-51.98 67.008-11.77 9.16-11.75 9.14 3.81-9.05 23.24-27.15 35.45-44.95 45.4-66.204 16.19-34.613 10.58-55.605-18.79-70.32-15.4-7.711-19.21-8.424-43.63-8.153-49.79 0.553-93.25 20.7-135.52 62.824-27.315 27.213-41.914 51.743-41.914 70.413 0 6.15 1.148 11.89 2.552 12.76 1.403 0.86 1.89 4.11 1.081 7.2s0.656 8.87 3.255 12.84c2.599 3.96 4.331 9.02 3.848 11.23-0.484 2.2-5.034-3.89-10.112-13.55zm88.93 13.32c-7.29-1.99-16.13-5.64-19.64-8.1-3.52-2.46-8.96-4.49-12.1-4.52-6.81-0.05-14.71-4.57-12.27-7.01 2.15-2.15 32.65 6.52 34.72 9.87 0.84 1.35 8.46 4.47 16.95 6.94 15.32 4.45 19.98 7.47 10.51 6.8-2.71-0.2-10.89-1.98-18.17-3.98zm-69.84-23.84c-2.32-1.5-2.96-2.73-1.41-2.73s4.72 1.23 7.04 2.73c2.33 1.5 2.96 2.73 1.41 2.73s-4.72-1.23-7.04-2.73zm320.04 85.06c0.42 0.72-13.5 14.93-16.13 22.22-2.62 7.29-4.06 10.27 0.36 21.5s12.43 26.46 26.16 45.87c13.74 19.42 50.35 62.42 56.27 70.6 5.91 8.18-10.75-9.26-20.79-21.5-10.03-12.24-29.82-35.36-40.69-51.96-12.14-16.61-20.65-36.42-25.55-47.67-10.74-11.24-24.27-26.88-23.86-27.06 1.44-0.43 20.72 21.5 22.46 20.01 1.73-1.49 1.72-7.01 4.52-13.34 2.81-6.33 16.83-19.38 17.25-18.67z"/>
  </g>
  <metadata>
    <rdf:RDF>
      <cc:Work>
        <dc:format>image/svg+xml</dc:format>
        <dc:type rdf:resource="http://purl.org/dc/dcmitype/StillImage"/>
        <cc:license rdf:resource="http://creativecommons.org/licenses/publicdomain/"/>
        <dc:publisher>
          <cc:Agent rdf:about="http://openclipart.org/">
            <dc:title>Openclipart</dc:title>
          </cc:Agent>
        </dc:publisher>
        <dc:title>table tennis</dc:title>
        <dc:date>2008-02-09T04:04:32</dc:date>
        <dc:description>activity, clip art, clipart, ping pong, sport, sports, table tennis, </dc:description>
        <dc:source>http://openclipart.org/detail/13232/table-tennis-by-anonymous</dc:source>
        <dc:creator>
          <cc:Agent>
            <dc:title>Anonymous</dc:title>
          </cc:Agent>
        </dc:creator>
        <dc:subject>
          <rdf:Bag>
            <rdf:li>activity</rdf:li>
            <rdf:li>clip art</rdf:li>
            <rdf:li>clipart</rdf:li>
            <rdf:li>ping pong</rdf:li>
            <rdf:li>sport</rdf:li>
            <rdf:li>sports</rdf:li>
            <rdf:li>table tennis</rdf:li>
          </rdf:Bag>
        </dc:subject>
      </cc:Work>
      <cc:License rdf:about="http://creativecommons.org/licenses/publicdomain/">
        <cc:permits rdf:resource="http://creativecommons.org/ns#Reproduction"/>
        <cc:permits rdf:resource="http://creativecommons.org/ns#Distribution"/>
        <cc:permits rdf:resource="http://creativecommons.org/ns#DerivativeWorks"/>
      </cc:License>
    </rdf:RDF>
  </metadata>
</svg>
