<svg id="Layer_1" data-name="Layer 1" xmlns="http://www.w3.org/2000/svg" viewBox="0 0 529.59 117.04"><defs><style>.cls-1{fill:#e82140;}.cls-2{fill:#fff;}.cls-3{fill:#231f20;}</style></defs><path class="cls-1" d="M189.56,14.8h11A16.13,16.13,0,0,1,216.7,30.94V91.19c0,9.33,11.86,8.46,16.09,7.63,0,4.21.87,7.63-.85,11-3.38,16.13-30.52,11.84-38.15,0-4.23-5.93-5.1-14.43-5.1-23.74V14.8ZM86.05,22.44h1.69v18.7H109.8c.85,8.46.85,21.19-12.76,21.19H86.86V92.85c0,8.5,14.42,7.67,21.24,5.12.83,10.18-.83,15.26-5.09,18.64-8.5,6.82-26.31,4.27-34-3.38C64.85,109,61.44,101.35,61.44,92V47.9c.86-14.45,11.89-25.46,24.61-25.46m94.18,73.81c1.66,11.9-2.55,17.81-10.2,21.21-12.71,5.1-33.11,4.21-44.14-4.23a34.94,34.94,0,0,1-13.56-25.44C109.8,70,116.55,53,131.88,44.49a57.35,57.35,0,0,1,14.39-5.07c15.26-1.72,30.54,5.07,36.49,19.49a34.48,34.48,0,0,1,2.55,12.73c-.87,11.9-8.5,15.3-18.7,17-7.63.87-17.78.87-30.5.87.81,17,36.45,14.43,44.1,6.78Z" transform="translate(-61.44 -4.62)"/><path class="cls-2" d="M136.11,72.51A22.08,22.08,0,0,1,142,60.63a11.11,11.11,0,0,1,10.16-2.55c8.48.83,15.3,11.88.87,13.56-5.12,1.72-11.9.87-17,.87" transform="translate(-61.44 -4.62)"/><path class="cls-1" d="M301.52,96.25c1.7,11.9-2.55,17.81-10.18,21.21-12.71,5.1-33.11,4.21-44.14-4.23a34.85,34.85,0,0,1-13.54-25.44C231.13,70,237.89,53,253.17,44.49a58,58,0,0,1,14.41-5.07c15.26-1.72,30.52,5.07,36.51,19.49a34.42,34.42,0,0,1,2.51,12.73c-.83,11.9-8.5,15.3-18.64,17-7.65.87-17.81.87-30.54.87,1.66,17,36.43,14.43,44.1,6.78Z" transform="translate(-61.44 -4.62)"/><path class="cls-2" d="M257.42,72.51a22,22,0,0,1,5.95-11.88,11.07,11.07,0,0,1,10.14-2.55c8.54.83,15.3,11.88.87,13.56-5.08,1.72-11.88.87-17,.87" transform="translate(-61.44 -4.62)"/><path d="M365.13,117.46V99.65c-12.71,5.93-22.89,4.25-27.14-2.55-8.48-11-2.49-28,8.5-34.77,6.76-5.1,16.11-5.95,24.58-2.57,1.71-5.93,4.26-11.86,5.12-17.84-7.65-3.35-36.48-5.06-53.44,14.46-14.43,16.13-18.66,47.52,2.53,60.23,9.33,6,22.91,6.82,39.85.85" transform="translate(-61.44 -4.62)"/><path d="M418.59,105.58c0,4.25-.82,8.48,0,13.58H439c.83-28,5.91-51.75,10.16-77.24-24.61-8.47-60.25-2.5-74.67,24.64-6.76,13.6-10.17,38.17,3.38,49.24C388.9,125.07,405.9,122.56,418.59,105.58Z" transform="translate(-61.44 -4.62)"/><path class="cls-2" d="M423.69,57.23C403.35,53,383.82,84.37,394,98.82c2.51,4.21,8.47,6.76,14.41,2.53,1.7-.83,4.23-2.53,5.1-5.1,6.78-9.31,7.65-28.84,10.16-39" transform="translate(-61.44 -4.62)"/><path d="M508.51,120.88,530.61,4.62H553.5L545,51.3c11.84-11,21.19-13.6,28.82-11.88,21.21,3.4,17.83,25.46,15.26,41.57-2.55,13.62-8.48,28-7.59,39.89H557.75C560.3,109,562,98,564.53,86.94c.85-5.1,2.55-11.88,2.55-17.81,0-21.23-22.93-11.9-28,13.56l-6.78,39Z" transform="translate(-61.44 -4.62)"/><path class="cls-1" d="M483.9,95.4c.87-12.71-8.44-19.49-7.59-27.12.83-13.58,18.64-13.58,28-10.2l-2.57,5.08,16.13-6.78-4.25-17.81-2.53,5.12c-8.48-5.12-22.91-6-34.77-1.77-13.6,5.15-23.76,20.41-15.26,34,5.91,9.31,17.81,11,22.85,19.49" transform="translate(-61.44 -4.62)"/><path class="cls-3" d="M481.39,65.73c-.85,5.91,2.51,11,4.25,14.43,13.58,23.74-12.75,27.12-30.56,21.19l2.53-5.1L441.52,103l4.25,17.85,2.51-5.08c4.27,2.51,11.88,4.23,19.53,5.08,14.43.79,28.84-.85,36.49-14.43,4.21-6.8,4.21-15.26,0-22.91-5.08-9.33-17-9.33-22.93-17.81" transform="translate(-61.44 -4.62)"/></svg>