<svg id="Layer_1" data-name="Layer 1" xmlns="http://www.w3.org/2000/svg" viewBox="0 0 536.75 130.63"><defs><style>.cls-1{fill:#2c2a29;}.cls-2{fill:#f49f1d;}.cls-3{fill:#e32428;}.cls-4{fill:#ea6424;}.cls-5{fill:#2a2a6e;}</style></defs><path class="cls-1" d="M435.44,123.19c-.41-.43-1.25-.84-1.68-1.26s-1.25-.43-2.1-.43h-1.25l-1.27.43-1.26.83L426.62,124c-.41-.83-1.25-1.26-2.09-2.09a5.26,5.26,0,0,0-2.53-.43h-1.25l-1.27.43-1.25.42a3.18,3.18,0,0,0-.85,1.26v-1.68h-2.93v13.45h2.93V127.8a2.51,2.51,0,0,1,.43-1.68c.42-.41.42-.83.84-1.24s.83-.42,1.26-.86a1.56,1.56,0,0,1,1.26-.41,2.42,2.42,0,0,1,2.1.85,4.52,4.52,0,0,1,.83,2.51v7.55h2.95V127a2.57,2.57,0,0,1,.41-1.68c.42-.41.42-.83.85-1.27s.83-.41,1.26-.83a1.51,1.51,0,0,1,1.24-.43,2.46,2.46,0,0,1,2.11.85,4.39,4.39,0,0,1,.84,2.51v7.57h2.95v-8.81a3.13,3.13,0,0,0-.43-2.12l-.84.43m15.55.42a3.57,3.57,0,0,0-2.1-1.26,5.35,5.35,0,0,0-2.53-.42,14.87,14.87,0,0,0-2.51.42,8.17,8.17,0,0,0-2.09,1.26,3.53,3.53,0,0,0-1.27,2.1,7,7,0,0,0-.43,2.94c0,1.25.43,2.1.43,2.93a8.92,8.92,0,0,0,1.27,2.11,3.46,3.46,0,0,0,2.09,1.26,5.18,5.18,0,0,0,2.51.43c.85,0,2.1-.43,2.53-.43.84-.43,1.26-.84,2.1-1.26v1.69h2.94V121.93H451Zm0,7.14c-.42.43-.42,1.26-.84,1.26s-.85.84-1.26.84a3.57,3.57,0,0,1-3.36,0l-1.26-.84c-.42-.43-.42-.83-.84-1.26a2.49,2.49,0,0,1-.43-1.68,2.47,2.47,0,0,1,.43-1.68c.42-.42.42-1.27.84-1.27.41-.41.84-.83,1.26-.83a3.65,3.65,0,0,1,3.36,0l1.26.83c.42.43.42.85.84,1.27a2.51,2.51,0,0,1,.42,1.68C451.41,129.49,451,129.9,451,130.75Zm16.8-2.1a5.52,5.52,0,0,0-3.36-1.26l-1.26-.42c-.43,0-.43,0-.84-.42l-.85-.43-.42-.41h-.84c0-.42.43-.83.43-1.25.41-.44,1.27-.44,2.09-.44H464c.42,0,.84.44,1.25.44l1.27.42c.42.41.42.41.83.41l1.27-2.53-2.52-1.26a8.39,8.39,0,0,0-2.94-.41,5.42,5.42,0,0,0-2.52.41c-.83.43-1.26.43-2.1.85l-1.25,1.26c-.43.41-.43,1.27-.43,2.1a2.58,2.58,0,0,0,1.25,2.52,4.79,4.79,0,0,0,3.36,1.26l1.26.41c.84,0,1.27.42,2.11.42.41.43.41.43.41,1.26s-.41.84-.83,1.27-1.26.42-2.51.42h-1.7c-.4,0-.83-.42-1.25-.42s-.85-.43-1.26-.43l-.84-.41-1.26,2.1,1.69.84,1.67.43a4.21,4.21,0,0,1,1.25.41h1.26c1.26,0,2.1,0,2.53-.41.84-.43,1.25-.43,2.1-.86l1.25-1.25a3.07,3.07,0,0,0,.43-2.09,1.58,1.58,0,0,0,0-2.53m27.71-5a3.51,3.51,0,0,0-2.09-1.26,5.33,5.33,0,0,0-2.53-.42,14.67,14.67,0,0,0-2.51.42,9.14,9.14,0,0,0-2.11,1.26,3.61,3.61,0,0,0-1.25,2.1,7.28,7.28,0,0,0-.41,2.94c0,1.25.41,2.1.41,2.93a9.67,9.67,0,0,0,1.25,2.11c.43.42,1.27,1.26,2.11,1.26a6.09,6.09,0,0,0,2.51.43c1.27,0,2.11-.43,3-.43.84-.43,2.09-.84,2.52-1.68l-1.27-2.09a9.13,9.13,0,0,1-2.1,1.24,3.73,3.73,0,0,1-2.11.43c-.41,0-1.26,0-1.26-.43-.41,0-.83-.41-1.25-.41a3.66,3.66,0,0,1-.84-1.26,2.59,2.59,0,0,1-.41-1.68h10.07V127.8c0-1.25-.43-2.09-.43-2.92-.4,0-.83-.42-1.26-1.27m-8.38,4.19.41-1.25c.43-.43.43-.84.84-1.26s.84-.41,1.25-.83a1.52,1.52,0,0,1,1.26-.44,4.49,4.49,0,0,1,2.53.86,3.49,3.49,0,0,1,1.27,2.51l-7.56.41ZM535,123.61c-.43-.42-1.27-1.26-2.11-1.26a5.31,5.31,0,0,0-2.52-.42,14.67,14.67,0,0,0-2.51.42,9.14,9.14,0,0,0-2.11,1.26,3.58,3.58,0,0,0-1.27,2.1,7.28,7.28,0,0,0-.41,2.94c0,1.25.41,2.1.41,2.93a9.64,9.64,0,0,0,1.27,2.11c.43.42,1.27,1.26,2.11,1.26a5.18,5.18,0,0,0,2.51.43,14.35,14.35,0,0,0,2.52-.43c.84-.43,1.27-.84,2.11-1.26v1.69h2.93V121.93H535Zm0,7.14c-.43.43-.43,1.26-.84,1.26-.43.41-.84.84-1.27.84a2.51,2.51,0,0,1-1.68.42,2.54,2.54,0,0,1-1.68-.42l-1.26-.84c-.41-.43-.41-.83-.84-1.26a2.59,2.59,0,0,1-.41-1.68,2.56,2.56,0,0,1,.41-1.68c.43-.42.43-1.27.84-1.27.43-.41.85-.83,1.26-.83a2.59,2.59,0,0,1,1.68-.41,2.56,2.56,0,0,1,1.68.41l1.27.83c.41.42.41.85.84,1.27a2.51,2.51,0,0,1,.42,1.68A3.19,3.19,0,0,1,535,130.75Zm-54.61,2.52a2.05,2.05,0,0,1-1.25.42c-.43,0-.43,0-.85-.42-.42,0-.42-.42-.84-.42L477,132l-.42-1.26v-5.87h5.05v-2.53h-5.05v-4.2h-2.93v4.2h-2.53v2.53h2.53v5.87c0,2.1.41,3.36,1.25,4.2a4.78,4.78,0,0,0,3.36,1.27,5.26,5.26,0,0,0,2.53-.43l1.25-.41-1.25-2.53c.43,0,0,0-.43.42m26.87-11.77a3,3,0,0,0-2.08.43,3.21,3.21,0,0,0-1.68,1.68V121.5H501V135h2.53v-7.56a2.56,2.56,0,0,1,.41-1.68,1.5,1.5,0,0,0,.43-1.25c.42-.44.84-.44,1.26-.85a1.51,1.51,0,0,1,1.25-.42h1.27c.4,0,.4,0,.4.42l.85-3-.85-.41c-.4,1.25-.4,1.25-1.26,1.25m41.59,0a17.57,17.57,0,0,0-2.09.43,3.21,3.21,0,0,0-1.68,1.68V121.5h-2.52V135h2.52v-7.56a2.56,2.56,0,0,1,.41-1.68,1.5,1.5,0,0,0,.43-1.25c.41-.44.84-.44,1.26-.85a1.51,1.51,0,0,1,1.25-.42h1.26c.42,0,.42,0,.42.42l.84-3-.84-.41c-.42,1.25-.84,1.25-1.26,1.25m13.87-5v7.14a3.57,3.57,0,0,0-2.11-1.26,5.33,5.33,0,0,0-2.51-.42,15.23,15.23,0,0,0-2.53.42,9.14,9.14,0,0,0-2.11,1.26,3.65,3.65,0,0,0-1.24,2.1,7,7,0,0,0-.43,2.94c0,1.25.43,2.1.43,2.93a9.69,9.69,0,0,0,1.24,2.11c.43.42,1.27,1.26,2.11,1.26a5.24,5.24,0,0,0,2.53.43c.82,0,2.09-.43,2.51-.43.85-.43,1.26-.84,2.11-1.26v1.69h2.93V116.05Zm0,14.28c-.42.43-.42,1.26-.85,1.26-.41.41-.84.84-1.26.84a3.57,3.57,0,0,1-3.36,0L556,132c-.43-.43-.43-.83-.84-1.26a2.49,2.49,0,0,1-.43-1.68,2.47,2.47,0,0,1,.43-1.68c.41-.42.41-1.27.84-1.27.41-.41.84-.83,1.25-.83a3.65,3.65,0,0,1,3.36,0l1.26.83c.43.43.43.85.85,1.27a2.56,2.56,0,0,1,.41,1.68C562.72,129.49,562.72,129.9,562.72,130.75Zm-48.31-5c.42-.42.85-.83,1.26-.83a2.55,2.55,0,0,1,1.69-.42,4.53,4.53,0,0,1,2.09.42c.42.41,1.26.41,1.26.83l1.26-2.52a8.84,8.84,0,0,0-2.1-1.26,6.93,6.93,0,0,0-2.93-.43c-.85,0-2.11.43-3,.43a8.42,8.42,0,0,0-2.51,1.68,9.74,9.74,0,0,0-1.7,2.1,7.28,7.28,0,0,0-.41,2.94c0,1.25.41,2.1.41,2.93a4.31,4.31,0,0,0,1.7,2.11,6.43,6.43,0,0,0,2.51,1.69,7.33,7.33,0,0,0,3,.41c.84,0,2.1-.41,2.93-.41.42-.43,1.26-.43,2.1-1.27l-1.26-2.53-1.26.84c-.41.43-1.27.43-2.09.43a2.51,2.51,0,0,1-1.69-.43c-.41-.41-1.26-.41-1.26-.84-.42-.4-.84-.83-.84-1.26a3.12,3.12,0,0,1-.42-2.09,3.84,3.84,0,0,1,.42-2.11c.42.43.84,0,.84-.41m57.54,8h.43l.41.42.43.41v1.27l-.43.43-.41.41h-1.26l-.43-.41-.41-.43v-1.27l.41-.41.43-.42H572m0,2.53c.43,0,.43,0,.43-.43l.41-.41V135a.42.42,0,0,0-.41-.43l-.43-.41h-.42a.4.4,0,0,0-.41.41l-.43.43v.43a.41.41,0,0,0,.43.41l.83.43Zm0-1.7.43.43H572l.43.43H572l-.42-.43v.43h-.41v-1.27l.83.41Z" transform="translate(-37.74 -6)"/><path class="cls-2" d="M570.69,86.21V84.54h-.41v-.83H572v.41h-.42v1.69h-.84Zm2.94,0V85l-.41,1.25h-.43L572.38,85v1.25H572V84.12h.43l.41,1.27.43-1.27h.41Z" transform="translate(-37.74 -6)"/><path class="cls-3" d="M458.55,6a51.66,51.66,0,1,1-51.67,51.66C407.31,29.1,430.41,6,458.55,6" transform="translate(-37.74 -6)"/><path class="cls-2" d="M522.81,6a51.66,51.66,0,1,1-51.66,51.66A51.64,51.64,0,0,1,522.81,6" transform="translate(-37.74 -6)"/><path class="cls-4" d="M490.47,17.35c11.76,9.65,19.74,23.94,19.74,40.31A50.33,50.33,0,0,1,490.47,98C478.71,88.32,470.73,74,470.73,57.66a53.56,53.56,0,0,1,19.74-40.31" transform="translate(-37.74 -6)"/><polygon class="cls-5" points="86.53 99.74 106.69 99.74 123.06 22.03 102.91 22.03 86.53 99.74"/><path class="cls-5" d="M161.66,86c-.86,1.27-3.78,15.12-3.78,17.21,15.11,6.31,41.56,6.74,52.91-8A22.43,22.43,0,0,0,215,76.77c-2.53-12.61-16.81-16-24.38-21.87-8-5.88,0-14.27,16.39-10.92,3.78.86,5.88,2.1,8.82,3l3.36-16.39c-7.14-2.11-10.92-3.35-19.75-3.35-11.74,0-25.19,4.6-30.65,15.52-6.72,13,0,23.53,11.76,29.83,4.2,2.1,12.18,5.45,13.44,9.66,2.09,7.14-7.56,9.66-13.44,9.24C169.21,89.78,168.37,87.67,161.66,86Z" transform="translate(-37.74 -6)"/><path class="cls-5" d="M37.74,28.88v1.26C43.62,31,55,34.75,59.18,37.69c2.5,2.11,3.35,5.87,4.19,10.08L75.13,94c.84,3.77,2.1,8,2.93,11.76h21c1.67-3.37,14.69-34.87,16.37-39.07l12.19-29c.84-2.1,3.36-8,4.2-9.66h-21l-21,52.5c-1.26-1.67-7.14-38.22-8.4-43.69C79.32,27.6,73.44,28,64.21,28c-8.41,0-17.65-.43-26,0Z" transform="translate(-37.74 -6)"/><path class="cls-5" d="M286.81,105.74v-.44L270.43,28c-5-.43-11.34,0-16.37,0-5.89,0-8,2.52-9.67,7.15-2.09,4.19-29.39,69.72-29.39,71h21L240.2,94.4h25.62a53.83,53.83,0,0,1,1.68,6.71c1.26,5.47.42,5,3.35,5,4.62-.42,10.5-.42,16-.42ZM245.66,78c.42-1.67,9.65-27.7,10.49-28.55L262,78H245.66" transform="translate(-37.74 -6)"/></svg>